<mxfile host="app.diagrams.net" modified="2024-06-08T16:01:14.790Z" agent="Mozilla/5.0 (Windows NT 10.0; Win64; x64) AppleWebKit/537.36 (KHTML, like Gecko) Chrome/125.0.0.0 Safari/537.36 Edg/125.0.0.0" etag="Bbq1cpFYFGVJARqAR7tS" version="24.4.15" type="github">
  <diagram id="C5RBs43oDa-KdzZeNtuy" name="Page-1">
    <mxGraphModel dx="5444" dy="4029" grid="1" gridSize="10" guides="1" tooltips="1" connect="1" arrows="1" fold="1" page="1" pageScale="1" pageWidth="827" pageHeight="1169" math="0" shadow="0">
      <root>
        <mxCell id="WIyWlLk6GJQsqaUBKTNV-0" />
        <mxCell id="WIyWlLk6GJQsqaUBKTNV-1" parent="WIyWlLk6GJQsqaUBKTNV-0" />
        <mxCell id="cNv1dug2NwwHb0u0l6bS-61" value="SP_PlanGroup" style="rounded=0;whiteSpace=wrap;html=1;fillColor=#FFCE9F;" parent="WIyWlLk6GJQsqaUBKTNV-1" vertex="1">
          <mxGeometry x="420" y="-1340" width="120" height="60" as="geometry" />
        </mxCell>
        <mxCell id="cNv1dug2NwwHb0u0l6bS-66" value="SP_PlanUnitGroup" style="rounded=0;whiteSpace=wrap;html=1;fillColor=#FFCE9F;" parent="WIyWlLk6GJQsqaUBKTNV-1" vertex="1">
          <mxGeometry x="630" y="-1340" width="120" height="60" as="geometry" />
        </mxCell>
        <mxCell id="cNv1dug2NwwHb0u0l6bS-67" value="SP_PlanBlock" style="rounded=0;whiteSpace=wrap;html=1;fillColor=#FFCE9F;" parent="WIyWlLk6GJQsqaUBKTNV-1" vertex="1">
          <mxGeometry x="420" y="-1210" width="120" height="60" as="geometry" />
        </mxCell>
        <mxCell id="cNv1dug2NwwHb0u0l6bS-68" value="SP_PlanUnit" style="rounded=0;whiteSpace=wrap;html=1;fillColor=#FFCE9F;" parent="WIyWlLk6GJQsqaUBKTNV-1" vertex="1">
          <mxGeometry x="590" y="-1210" width="120" height="60" as="geometry" />
        </mxCell>
        <mxCell id="cNv1dug2NwwHb0u0l6bS-69" value="SP_Permit" style="rounded=0;whiteSpace=wrap;html=1;fillColor=#FFF4C3;" parent="WIyWlLk6GJQsqaUBKTNV-1" vertex="1">
          <mxGeometry x="780" y="-1210" width="120" height="60" as="geometry" />
        </mxCell>
        <mxCell id="cNv1dug2NwwHb0u0l6bS-70" value="" style="endArrow=diamondThin;endFill=0;endSize=24;html=1;rounded=0;entryX=1;entryY=0.5;entryDx=0;entryDy=0;exitX=0;exitY=0.5;exitDx=0;exitDy=0;" parent="WIyWlLk6GJQsqaUBKTNV-1" source="cNv1dug2NwwHb0u0l6bS-66" target="cNv1dug2NwwHb0u0l6bS-61" edge="1">
          <mxGeometry width="160" relative="1" as="geometry">
            <mxPoint x="420" y="-1050" as="sourcePoint" />
            <mxPoint x="580" y="-1050" as="targetPoint" />
          </mxGeometry>
        </mxCell>
        <mxCell id="cNv1dug2NwwHb0u0l6bS-71" value="" style="endArrow=diamondThin;endFill=0;endSize=24;html=1;rounded=0;entryX=0.5;entryY=1;entryDx=0;entryDy=0;exitX=0.5;exitY=0;exitDx=0;exitDy=0;" parent="WIyWlLk6GJQsqaUBKTNV-1" source="cNv1dug2NwwHb0u0l6bS-67" target="cNv1dug2NwwHb0u0l6bS-61" edge="1">
          <mxGeometry width="160" relative="1" as="geometry">
            <mxPoint x="640" y="-1300" as="sourcePoint" />
            <mxPoint x="550" y="-1300" as="targetPoint" />
          </mxGeometry>
        </mxCell>
        <mxCell id="cNv1dug2NwwHb0u0l6bS-74" value="" style="endArrow=diamondThin;endFill=0;endSize=24;html=1;rounded=0;edgeStyle=orthogonalEdgeStyle;entryX=0;entryY=0.75;entryDx=0;entryDy=0;exitX=0;exitY=0.25;exitDx=0;exitDy=0;" parent="WIyWlLk6GJQsqaUBKTNV-1" source="cNv1dug2NwwHb0u0l6bS-61" target="cNv1dug2NwwHb0u0l6bS-61" edge="1">
          <mxGeometry width="160" relative="1" as="geometry">
            <mxPoint x="120" y="-1200" as="sourcePoint" />
            <mxPoint x="280" y="-1200" as="targetPoint" />
            <Array as="points">
              <mxPoint x="370" y="-1325" />
              <mxPoint x="370" y="-1295" />
            </Array>
          </mxGeometry>
        </mxCell>
        <mxCell id="cNv1dug2NwwHb0u0l6bS-75" value="" style="endArrow=none;html=1;edgeStyle=orthogonalEdgeStyle;rounded=0;" parent="WIyWlLk6GJQsqaUBKTNV-1" target="cNv1dug2NwwHb0u0l6bS-67" edge="1">
          <mxGeometry relative="1" as="geometry">
            <mxPoint x="430" y="-1210" as="sourcePoint" />
            <mxPoint x="350" y="-1270" as="targetPoint" />
            <Array as="points">
              <mxPoint x="430" y="-1210" />
              <mxPoint x="430" y="-1240" />
              <mxPoint x="457" y="-1240" />
            </Array>
          </mxGeometry>
        </mxCell>
        <mxCell id="cNv1dug2NwwHb0u0l6bS-79" value="" style="endArrow=none;html=1;edgeStyle=orthogonalEdgeStyle;rounded=0;" parent="WIyWlLk6GJQsqaUBKTNV-1" edge="1">
          <mxGeometry relative="1" as="geometry">
            <mxPoint x="610" y="-1210" as="sourcePoint" />
            <mxPoint x="637" y="-1210" as="targetPoint" />
            <Array as="points">
              <mxPoint x="610" y="-1210" />
              <mxPoint x="610" y="-1240" />
              <mxPoint x="637" y="-1240" />
            </Array>
          </mxGeometry>
        </mxCell>
        <mxCell id="cNv1dug2NwwHb0u0l6bS-81" value="" style="endArrow=diamondThin;endFill=0;endSize=24;html=1;rounded=0;entryX=1;entryY=0.5;entryDx=0;entryDy=0;exitX=0;exitY=0.5;exitDx=0;exitDy=0;" parent="WIyWlLk6GJQsqaUBKTNV-1" source="cNv1dug2NwwHb0u0l6bS-68" target="cNv1dug2NwwHb0u0l6bS-67" edge="1">
          <mxGeometry width="160" relative="1" as="geometry">
            <mxPoint x="170" y="-1130" as="sourcePoint" />
            <mxPoint x="330" y="-1130" as="targetPoint" />
          </mxGeometry>
        </mxCell>
        <mxCell id="cNv1dug2NwwHb0u0l6bS-82" value="" style="endArrow=none;html=1;edgeStyle=orthogonalEdgeStyle;rounded=0;entryX=0;entryY=0.5;entryDx=0;entryDy=0;exitX=1;exitY=0.5;exitDx=0;exitDy=0;" parent="WIyWlLk6GJQsqaUBKTNV-1" source="cNv1dug2NwwHb0u0l6bS-68" target="cNv1dug2NwwHb0u0l6bS-69" edge="1">
          <mxGeometry relative="1" as="geometry">
            <mxPoint x="240" y="-1210" as="sourcePoint" />
            <mxPoint x="400" y="-1210" as="targetPoint" />
          </mxGeometry>
        </mxCell>
        <mxCell id="cNv1dug2NwwHb0u0l6bS-85" value="&lt;font style=&quot;font-size: 14px;&quot;&gt;SP_PlanUnit&lt;/font&gt;" style="swimlane;fontStyle=0;childLayout=stackLayout;horizontal=1;startSize=26;fillColor=#FFCE9F;horizontalStack=0;resizeParent=1;resizeParentMax=0;resizeLast=0;collapsible=1;marginBottom=0;whiteSpace=wrap;html=1;" parent="WIyWlLk6GJQsqaUBKTNV-1" vertex="1">
          <mxGeometry x="1600" y="-1200" width="330" height="550" as="geometry">
            <mxRectangle x="1810" y="-860" width="100" height="30" as="alternateBounds" />
          </mxGeometry>
        </mxCell>
        <mxCell id="cNv1dug2NwwHb0u0l6bS-86" value="&lt;font style=&quot;font-size: 14px;&quot;&gt;+ puID: Oid&lt;/font&gt;" style="text;strokeColor=none;fillColor=none;align=left;verticalAlign=top;spacingLeft=4;spacingRight=4;overflow=hidden;rotatable=0;points=[[0,0.5],[1,0.5]];portConstraint=eastwest;whiteSpace=wrap;html=1;" parent="cNv1dug2NwwHb0u0l6bS-85" vertex="1">
          <mxGeometry y="26" width="330" height="26" as="geometry" />
        </mxCell>
        <mxCell id="cNv1dug2NwwHb0u0l6bS-87" value="&lt;font style=&quot;font-size: 14px;&quot;&gt;+ subFunctionName: CharacterString&lt;/font&gt;" style="text;strokeColor=none;fillColor=none;align=left;verticalAlign=top;spacingLeft=4;spacingRight=4;overflow=hidden;rotatable=0;points=[[0,0.5],[1,0.5]];portConstraint=eastwest;whiteSpace=wrap;html=1;" parent="cNv1dug2NwwHb0u0l6bS-85" vertex="1">
          <mxGeometry y="52" width="330" height="26" as="geometry" />
        </mxCell>
        <mxCell id="cNv1dug2NwwHb0u0l6bS-88" value="&lt;font style=&quot;font-size: 14px;&quot;&gt;+ subFunctionType: SP_SubSpaceFunction&lt;/font&gt;&lt;div&gt;&lt;br&gt;&lt;/div&gt;&lt;div&gt;&lt;font style=&quot;font-size: 14px;&quot;&gt;+&amp;nbsp;maxVolumeIndications:&amp;nbsp;LA_VolumeValue&lt;/font&gt;&lt;/div&gt;&lt;div&gt;&lt;br&gt;&lt;/div&gt;&lt;div&gt;&lt;font style=&quot;font-size: 14px;&quot;&gt;+&amp;nbsp;maxAreaIndications:&amp;nbsp;LA_AreaValue&lt;/font&gt;&lt;/div&gt;&lt;div&gt;&lt;br&gt;&lt;/div&gt;&lt;div&gt;&lt;font style=&quot;font-size: 14px;&quot;&gt;+&amp;nbsp;maxHeightIndications:&amp;nbsp;LA_LengthValue&lt;/font&gt;&lt;/div&gt;&lt;div&gt;&lt;br&gt;&lt;/div&gt;&lt;div&gt;&lt;font style=&quot;font-size: 14px;&quot;&gt;+&amp;nbsp;unitIndications:&amp;nbsp;Integer&lt;/font&gt;&lt;/div&gt;&lt;div&gt;&lt;br&gt;&lt;/div&gt;&lt;div&gt;&lt;font style=&quot;font-size: 14px;&quot;&gt;+&amp;nbsp;otherIndications:&amp;nbsp;CharacterString&lt;/font&gt;&lt;/div&gt;&lt;div&gt;&lt;br&gt;&lt;/div&gt;&lt;div&gt;&lt;font style=&quot;font-size: 14px;&quot;&gt;+&amp;nbsp;typeOfBuildingIndications:&amp;nbsp;CharacterString&lt;/font&gt;&lt;/div&gt;&lt;div&gt;&lt;br&gt;&lt;/div&gt;&lt;div&gt;&lt;font style=&quot;font-size: 14px;&quot;&gt;+&amp;nbsp;typeOfShapeIndications:&amp;nbsp;CharacterString&lt;/font&gt;&lt;/div&gt;&lt;div&gt;&lt;br&gt;&lt;/div&gt;&lt;div&gt;&lt;font style=&quot;font-size: 14px;&quot;&gt;+&amp;nbsp;otherConstructionIndications:&amp;nbsp;CharacterString&lt;/font&gt;&lt;/div&gt;&lt;div&gt;&lt;br&gt;&lt;/div&gt;&lt;div&gt;&lt;font style=&quot;font-size: 14px;&quot;&gt;+&amp;nbsp;referencePoint:&amp;nbsp;Point&lt;/font&gt;&lt;/div&gt;&lt;div&gt;&lt;br&gt;&lt;/div&gt;&lt;div&gt;&lt;font style=&quot;font-size: 14px;&quot;&gt;+&amp;nbsp;surfaceRelation:&amp;nbsp;LA_SurfaceRelationType&lt;/font&gt;&lt;/div&gt;&lt;div&gt;&lt;br&gt;&lt;/div&gt;&lt;div&gt;&lt;font style=&quot;font-size: 14px;&quot;&gt;+&amp;nbsp;currentArea:&amp;nbsp;LA_AreaValue&lt;/font&gt;&lt;/div&gt;&lt;div&gt;&lt;br&gt;&lt;/div&gt;&lt;div&gt;&lt;font style=&quot;font-size: 14px;&quot;&gt;+&amp;nbsp;currentVolume:&amp;nbsp;LA_VolumeValue&lt;/font&gt;&lt;/div&gt;&lt;div&gt;&lt;br&gt;&lt;/div&gt;&lt;div&gt;&lt;font style=&quot;font-size: 14px;&quot;&gt;+&amp;nbsp;featureProtected:&amp;nbsp;CharacterString&lt;/font&gt;&lt;/div&gt;&lt;div&gt;&lt;br&gt;&lt;/div&gt;&lt;div&gt;&lt;font style=&quot;font-size: 14px;&quot;&gt;+&amp;nbsp;statusType:&amp;nbsp;SP_StatusType&lt;/font&gt;&lt;/div&gt;&lt;div&gt;&lt;br&gt;&lt;/div&gt;&lt;div&gt;&lt;br&gt;&lt;/div&gt;" style="text;strokeColor=none;fillColor=none;align=left;verticalAlign=top;spacingLeft=4;spacingRight=4;overflow=hidden;rotatable=0;points=[[0,0.5],[1,0.5]];portConstraint=eastwest;whiteSpace=wrap;html=1;" parent="cNv1dug2NwwHb0u0l6bS-85" vertex="1">
          <mxGeometry y="78" width="330" height="472" as="geometry" />
        </mxCell>
        <mxCell id="cNv1dug2NwwHb0u0l6bS-97" value="&lt;div&gt;&lt;font style=&quot;font-size: 14px;&quot;&gt;Requirement 4: Spatial plan&amp;nbsp;&lt;/font&gt;&lt;/div&gt;&lt;div&gt;&lt;font style=&quot;font-size: 14px;&quot;&gt;information compliant with&amp;nbsp;&lt;/font&gt;&lt;/div&gt;&lt;div&gt;&lt;font style=&quot;font-size: 14px;&quot;&gt;this part of LADM shall&lt;/font&gt;&lt;/div&gt;&lt;div&gt;&lt;font style=&quot;font-size: 14px;&quot;&gt;organize&lt;span style=&quot;background-color: initial;&quot;&gt;&amp;nbsp;plan units&lt;/span&gt;&lt;/font&gt;&lt;/div&gt;&lt;div&gt;&lt;font style=&quot;font-size: 14px;&quot;&gt;(plan zones) in plan block,&lt;/font&gt;&lt;/div&gt;" style="shape=callout;whiteSpace=wrap;html=1;perimeter=calloutPerimeter;position2=0.27;fillColor=#E6D0DE;" parent="WIyWlLk6GJQsqaUBKTNV-1" vertex="1">
          <mxGeometry x="1950" y="-1600" width="260" height="130" as="geometry" />
        </mxCell>
        <mxCell id="cNv1dug2NwwHb0u0l6bS-98" value="&lt;div&gt;&lt;font style=&quot;font-size: 14px;&quot;&gt;Requirement 5: Effective land&amp;nbsp;&lt;/font&gt;&lt;/div&gt;&lt;div&gt;&lt;font style=&quot;font-size: 14px;&quot;&gt;administration&amp;nbsp;&lt;span style=&quot;background-color: initial;&quot;&gt;systems&amp;nbsp;&lt;/span&gt;&lt;span style=&quot;background-color: initial;&quot;&gt;shall provide&amp;nbsp;&lt;/span&gt;&lt;/font&gt;&lt;/div&gt;&lt;div&gt;&lt;span style=&quot;background-color: initial;&quot;&gt;&lt;font style=&quot;font-size: 14px;&quot;&gt;extensible code list for the&amp;nbsp;&lt;/font&gt;&lt;/span&gt;&lt;/div&gt;&lt;div&gt;&lt;span style=&quot;background-color: initial;&quot;&gt;&lt;font style=&quot;font-size: 14px;&quot;&gt;spatial (sub)functions of plan units&lt;/font&gt;&lt;/span&gt;&lt;/div&gt;&lt;div&gt;&lt;font style=&quot;font-size: 14px;&quot;&gt;and plan blocks according to&amp;nbsp;&lt;/font&gt;&lt;/div&gt;&lt;div&gt;&lt;font style=&quot;font-size: 14px;&quot;&gt;national/local regulations.&lt;/font&gt;&lt;/div&gt;" style="shape=callout;whiteSpace=wrap;html=1;perimeter=calloutPerimeter;fillColor=#E6D0DE;position2=0.62;" parent="WIyWlLk6GJQsqaUBKTNV-1" vertex="1">
          <mxGeometry x="1280" y="-1050" width="290" height="140" as="geometry" />
        </mxCell>
        <mxCell id="cNv1dug2NwwHb0u0l6bS-99" value="&lt;font style=&quot;font-size: 14px;&quot;&gt;SP_PlanBlock&lt;/font&gt;" style="swimlane;fontStyle=0;childLayout=stackLayout;horizontal=1;startSize=26;fillColor=#FFCE9F;horizontalStack=0;resizeParent=1;resizeParentMax=0;resizeLast=0;collapsible=1;marginBottom=0;whiteSpace=wrap;html=1;" parent="WIyWlLk6GJQsqaUBKTNV-1" vertex="1">
          <mxGeometry x="1600" y="-1660" width="330" height="340" as="geometry">
            <mxRectangle x="1810" y="-860" width="100" height="30" as="alternateBounds" />
          </mxGeometry>
        </mxCell>
        <mxCell id="cNv1dug2NwwHb0u0l6bS-100" value="&lt;font style=&quot;font-size: 14px;&quot;&gt;+ pbID: Oid&lt;/font&gt;" style="text;strokeColor=none;fillColor=none;align=left;verticalAlign=top;spacingLeft=4;spacingRight=4;overflow=hidden;rotatable=0;points=[[0,0.5],[1,0.5]];portConstraint=eastwest;whiteSpace=wrap;html=1;" parent="cNv1dug2NwwHb0u0l6bS-99" vertex="1">
          <mxGeometry y="26" width="330" height="26" as="geometry" />
        </mxCell>
        <mxCell id="cNv1dug2NwwHb0u0l6bS-101" value="&lt;font style=&quot;font-size: 14px;&quot;&gt;+ blockName: CharacterString&lt;/font&gt;" style="text;strokeColor=none;fillColor=none;align=left;verticalAlign=top;spacingLeft=4;spacingRight=4;overflow=hidden;rotatable=0;points=[[0,0.5],[1,0.5]];portConstraint=eastwest;whiteSpace=wrap;html=1;" parent="cNv1dug2NwwHb0u0l6bS-99" vertex="1">
          <mxGeometry y="52" width="330" height="26" as="geometry" />
        </mxCell>
        <mxCell id="cNv1dug2NwwHb0u0l6bS-102" value="&lt;font style=&quot;font-size: 14px;&quot;&gt;+ functionType: SP_SpaceFunction&lt;/font&gt;&lt;div&gt;&lt;br&gt;&lt;/div&gt;&lt;div&gt;&lt;font style=&quot;font-size: 14px;&quot;&gt;+ protectedSite: SP_ProtectedClassificationValue&lt;/font&gt;&lt;br&gt;&lt;div&gt;&lt;br&gt;&lt;/div&gt;&lt;div&gt;&lt;font style=&quot;font-size: 14px;&quot;&gt;+&amp;nbsp;naturalRiskSafetyArea:&amp;nbsp;SP_NaturalRiskSafetyAreaType&lt;/font&gt;&lt;/div&gt;&lt;div&gt;&lt;br&gt;&lt;/div&gt;&lt;div&gt;&lt;font style=&quot;font-size: 14px;&quot;&gt;+&amp;nbsp;restrictionZone:&amp;nbsp;SP_RestrictionZoneType&lt;/font&gt;&lt;/div&gt;&lt;div&gt;&lt;br&gt;&lt;/div&gt;&lt;div&gt;&lt;font style=&quot;font-size: 14px;&quot;&gt;+&amp;nbsp;constraintName:&amp;nbsp;CharacterString&lt;/font&gt;&lt;/div&gt;&lt;div&gt;&lt;br&gt;&lt;/div&gt;&lt;div&gt;&lt;font style=&quot;font-size: 14px;&quot;&gt;+&amp;nbsp;constraintDescription:&amp;nbsp;CharacterString&lt;/font&gt;&lt;/div&gt;&lt;div&gt;&lt;br&gt;&lt;/div&gt;&lt;div&gt;&lt;font style=&quot;font-size: 14px;&quot;&gt;+&amp;nbsp;&lt;span style=&quot;background-color: initial;&quot;&gt;technologicalRiskSafetyAre&lt;/span&gt;&lt;span style=&quot;background-color: initial;&quot;&gt;a&lt;/span&gt;:&amp;nbsp;CharacterString&lt;/font&gt;&lt;/div&gt;&lt;div&gt;&lt;br&gt;&lt;/div&gt;&lt;div&gt;&lt;font style=&quot;font-size: 14px;&quot;&gt;+&amp;nbsp;miningRisksSafetyArea:&amp;nbsp;CharacterString&lt;/font&gt;&lt;/div&gt;&lt;div&gt;&lt;br&gt;&lt;/div&gt;&lt;div&gt;&lt;br&gt;&lt;/div&gt;&lt;/div&gt;" style="text;strokeColor=none;fillColor=none;align=left;verticalAlign=top;spacingLeft=4;spacingRight=4;overflow=hidden;rotatable=0;points=[[0,0.5],[1,0.5]];portConstraint=eastwest;whiteSpace=wrap;html=1;" parent="cNv1dug2NwwHb0u0l6bS-99" vertex="1">
          <mxGeometry y="78" width="330" height="262" as="geometry" />
        </mxCell>
        <mxCell id="cNv1dug2NwwHb0u0l6bS-103" value="" style="endArrow=diamondThin;endFill=0;endSize=24;html=1;rounded=0;exitX=0.5;exitY=0;exitDx=0;exitDy=0;" parent="WIyWlLk6GJQsqaUBKTNV-1" source="cNv1dug2NwwHb0u0l6bS-85" target="cNv1dug2NwwHb0u0l6bS-102" edge="1">
          <mxGeometry width="160" relative="1" as="geometry">
            <mxPoint x="1950" y="-1200" as="sourcePoint" />
            <mxPoint x="1768" y="-1340" as="targetPoint" />
          </mxGeometry>
        </mxCell>
        <mxCell id="cNv1dug2NwwHb0u0l6bS-104" value="&lt;font style=&quot;font-size: 14px;&quot;&gt;SP_PlanGroup&lt;/font&gt;" style="swimlane;fontStyle=0;childLayout=stackLayout;horizontal=1;startSize=26;fillColor=#FFCE9F;horizontalStack=0;resizeParent=1;resizeParentMax=0;resizeLast=0;collapsible=1;marginBottom=0;whiteSpace=wrap;html=1;" parent="WIyWlLk6GJQsqaUBKTNV-1" vertex="1">
          <mxGeometry x="1600" y="-1950" width="330" height="140" as="geometry">
            <mxRectangle x="1810" y="-860" width="100" height="30" as="alternateBounds" />
          </mxGeometry>
        </mxCell>
        <mxCell id="cNv1dug2NwwHb0u0l6bS-105" value="&lt;font style=&quot;font-size: 14px;&quot;&gt;+ pgID: Oid&lt;/font&gt;" style="text;strokeColor=none;fillColor=none;align=left;verticalAlign=top;spacingLeft=4;spacingRight=4;overflow=hidden;rotatable=0;points=[[0,0.5],[1,0.5]];portConstraint=eastwest;whiteSpace=wrap;html=1;" parent="cNv1dug2NwwHb0u0l6bS-104" vertex="1">
          <mxGeometry y="26" width="330" height="26" as="geometry" />
        </mxCell>
        <mxCell id="cNv1dug2NwwHb0u0l6bS-106" value="&lt;font style=&quot;font-size: 14px;&quot;&gt;+ hierarchyLevel: Integer&lt;/font&gt;" style="text;strokeColor=none;fillColor=none;align=left;verticalAlign=top;spacingLeft=4;spacingRight=4;overflow=hidden;rotatable=0;points=[[0,0.5],[1,0.5]];portConstraint=eastwest;whiteSpace=wrap;html=1;" parent="cNv1dug2NwwHb0u0l6bS-104" vertex="1">
          <mxGeometry y="52" width="330" height="26" as="geometry" />
        </mxCell>
        <mxCell id="cNv1dug2NwwHb0u0l6bS-107" value="&lt;font style=&quot;font-size: 14px;&quot;&gt;+ label: CharacterString&lt;/font&gt;&lt;div&gt;&lt;br&gt;&lt;/div&gt;&lt;div&gt;&lt;font style=&quot;font-size: 14px;&quot;&gt;+ referencePoint:&amp;nbsp;Point&lt;/font&gt;&lt;div&gt;&lt;br&gt;&lt;/div&gt;&lt;div&gt;&lt;br&gt;&lt;/div&gt;&lt;/div&gt;" style="text;strokeColor=none;fillColor=none;align=left;verticalAlign=top;spacingLeft=4;spacingRight=4;overflow=hidden;rotatable=0;points=[[0,0.5],[1,0.5]];portConstraint=eastwest;whiteSpace=wrap;html=1;" parent="cNv1dug2NwwHb0u0l6bS-104" vertex="1">
          <mxGeometry y="78" width="330" height="62" as="geometry" />
        </mxCell>
        <mxCell id="cNv1dug2NwwHb0u0l6bS-110" value="" style="endArrow=diamondThin;endFill=0;endSize=24;html=1;rounded=0;exitX=0.48;exitY=0.003;exitDx=0;exitDy=0;exitPerimeter=0;" parent="WIyWlLk6GJQsqaUBKTNV-1" source="cNv1dug2NwwHb0u0l6bS-99" edge="1">
          <mxGeometry width="160" relative="1" as="geometry">
            <mxPoint x="1760" y="-1660" as="sourcePoint" />
            <mxPoint x="1760" y="-1810" as="targetPoint" />
          </mxGeometry>
        </mxCell>
        <mxCell id="cNv1dug2NwwHb0u0l6bS-115" value="&lt;font style=&quot;font-size: 14px;&quot;&gt;SP_Permit&lt;/font&gt;" style="swimlane;fontStyle=0;childLayout=stackLayout;horizontal=1;startSize=26;fillColor=#FFF4C3;horizontalStack=0;resizeParent=1;resizeParentMax=0;resizeLast=0;collapsible=1;marginBottom=0;whiteSpace=wrap;html=1;" parent="WIyWlLk6GJQsqaUBKTNV-1" vertex="1">
          <mxGeometry x="2120" y="-1110" width="330" height="240" as="geometry">
            <mxRectangle x="1810" y="-860" width="100" height="30" as="alternateBounds" />
          </mxGeometry>
        </mxCell>
        <mxCell id="cNv1dug2NwwHb0u0l6bS-116" value="&lt;font style=&quot;font-size: 14px;&quot;&gt;+ pID: Oid&lt;/font&gt;" style="text;strokeColor=none;fillColor=none;align=left;verticalAlign=top;spacingLeft=4;spacingRight=4;overflow=hidden;rotatable=0;points=[[0,0.5],[1,0.5]];portConstraint=eastwest;whiteSpace=wrap;html=1;" parent="cNv1dug2NwwHb0u0l6bS-115" vertex="1">
          <mxGeometry y="26" width="330" height="26" as="geometry" />
        </mxCell>
        <mxCell id="cNv1dug2NwwHb0u0l6bS-117" value="&lt;font style=&quot;font-size: 14px;&quot;&gt;+ typeOfPermit:&amp;nbsp;SP_PermitType&lt;/font&gt;" style="text;strokeColor=none;fillColor=none;align=left;verticalAlign=top;spacingLeft=4;spacingRight=4;overflow=hidden;rotatable=0;points=[[0,0.5],[1,0.5]];portConstraint=eastwest;whiteSpace=wrap;html=1;" parent="cNv1dug2NwwHb0u0l6bS-115" vertex="1">
          <mxGeometry y="52" width="330" height="26" as="geometry" />
        </mxCell>
        <mxCell id="cNv1dug2NwwHb0u0l6bS-118" value="&lt;font style=&quot;font-size: 14px;&quot;&gt;+ name: CharacterString&lt;/font&gt;&lt;div&gt;&lt;br&gt;&lt;div&gt;&lt;font style=&quot;font-size: 14px;&quot;&gt;+ description:&amp;nbsp;CharacterString&lt;/font&gt;&lt;/div&gt;&lt;div&gt;&lt;br&gt;&lt;div&gt;&lt;font style=&quot;font-size: 14px;&quot;&gt;+&amp;nbsp;decisionDate:&amp;nbsp;DateTime&lt;/font&gt;&lt;/div&gt;&lt;div&gt;&lt;br&gt;&lt;/div&gt;&lt;div&gt;&lt;font style=&quot;font-size: 14px;&quot;&gt;+&amp;nbsp;duration:&amp;nbsp;CharacterString&lt;/font&gt;&lt;/div&gt;&lt;div&gt;&lt;br&gt;&lt;/div&gt;&lt;div&gt;&lt;font style=&quot;font-size: 14px;&quot;&gt;+&amp;nbsp;period:&amp;nbsp;CharacterString&lt;/font&gt;&lt;/div&gt;&lt;div&gt;&lt;br&gt;&lt;/div&gt;&lt;div&gt;&lt;br&gt;&lt;/div&gt;&lt;/div&gt;&lt;/div&gt;" style="text;strokeColor=none;fillColor=none;align=left;verticalAlign=top;spacingLeft=4;spacingRight=4;overflow=hidden;rotatable=0;points=[[0,0.5],[1,0.5]];portConstraint=eastwest;whiteSpace=wrap;html=1;" parent="cNv1dug2NwwHb0u0l6bS-115" vertex="1">
          <mxGeometry y="78" width="330" height="162" as="geometry" />
        </mxCell>
        <mxCell id="cNv1dug2NwwHb0u0l6bS-120" value="" style="endArrow=none;html=1;edgeStyle=orthogonalEdgeStyle;rounded=0;entryX=0;entryY=0.5;entryDx=0;entryDy=0;exitX=1.006;exitY=0.343;exitDx=0;exitDy=0;exitPerimeter=0;" parent="WIyWlLk6GJQsqaUBKTNV-1" source="cNv1dug2NwwHb0u0l6bS-88" target="cNv1dug2NwwHb0u0l6bS-118" edge="1">
          <mxGeometry relative="1" as="geometry">
            <mxPoint x="1910" y="-1000" as="sourcePoint" />
            <mxPoint x="2070" y="-1000" as="targetPoint" />
            <Array as="points">
              <mxPoint x="2120" y="-960" />
            </Array>
          </mxGeometry>
        </mxCell>
        <mxCell id="cNv1dug2NwwHb0u0l6bS-123" value="&lt;div&gt;&lt;font style=&quot;font-size: 14px;&quot;&gt;Requirement 7: Efficient and effective spatial plan information management system using this&lt;/font&gt; &lt;font style=&quot;font-size: 14px;&quot;&gt;part of&amp;nbsp;&lt;span style=&quot;background-color: initial;&quot;&gt;ISO 19152 LADM shall support permit registration and relating this to the relevant plan unit.&lt;/span&gt;&lt;/font&gt;&lt;/div&gt;" style="shape=callout;whiteSpace=wrap;html=1;perimeter=calloutPerimeter;position2=0.27;fillColor=#E6D0DE;" parent="WIyWlLk6GJQsqaUBKTNV-1" vertex="1">
          <mxGeometry x="2480" y="-1090" width="270" height="130" as="geometry" />
        </mxCell>
        <mxCell id="cNv1dug2NwwHb0u0l6bS-124" value="SP_PlanGroup" style="rounded=0;whiteSpace=wrap;html=1;fillColor=#E6D0DE;" parent="WIyWlLk6GJQsqaUBKTNV-1" vertex="1">
          <mxGeometry x="3060" y="-520" width="320" height="160" as="geometry" />
        </mxCell>
        <mxCell id="cNv1dug2NwwHb0u0l6bS-126" value="SP_PlanBlock" style="rounded=0;whiteSpace=wrap;html=1;fillColor=#FFCE9F;" parent="WIyWlLk6GJQsqaUBKTNV-1" vertex="1">
          <mxGeometry x="3060" y="-600" width="160" height="80" as="geometry" />
        </mxCell>
        <mxCell id="cNv1dug2NwwHb0u0l6bS-139" value="SP_PlanBlock" style="rounded=0;whiteSpace=wrap;html=1;fillColor=#FFCE9F;" parent="WIyWlLk6GJQsqaUBKTNV-1" vertex="1">
          <mxGeometry x="3220" y="-600" width="160" height="80" as="geometry" />
        </mxCell>
        <mxCell id="cNv1dug2NwwHb0u0l6bS-145" value="SP_PlanUnit" style="rounded=0;whiteSpace=wrap;html=1;fillColor=#FFF4C3;" parent="WIyWlLk6GJQsqaUBKTNV-1" vertex="1">
          <mxGeometry x="3060" y="-640" width="80" height="40" as="geometry" />
        </mxCell>
        <mxCell id="cNv1dug2NwwHb0u0l6bS-147" value="SP_PlanUnit" style="rounded=0;whiteSpace=wrap;html=1;fillColor=#FFF4C3;" parent="WIyWlLk6GJQsqaUBKTNV-1" vertex="1">
          <mxGeometry x="3140" y="-640" width="80" height="40" as="geometry" />
        </mxCell>
        <mxCell id="cNv1dug2NwwHb0u0l6bS-148" value="SP_PlanUnit" style="rounded=0;whiteSpace=wrap;html=1;fillColor=#FFF4C3;" parent="WIyWlLk6GJQsqaUBKTNV-1" vertex="1">
          <mxGeometry x="3220" y="-640" width="80" height="40" as="geometry" />
        </mxCell>
        <mxCell id="cNv1dug2NwwHb0u0l6bS-149" value="SP_PlanUnit" style="rounded=0;whiteSpace=wrap;html=1;fillColor=#FFF4C3;" parent="WIyWlLk6GJQsqaUBKTNV-1" vertex="1">
          <mxGeometry x="3300" y="-640" width="80" height="40" as="geometry" />
        </mxCell>
        <mxCell id="cNv1dug2NwwHb0u0l6bS-150" value="&lt;font style=&quot;font-size: 18px;&quot;&gt;SP_PlanGroup&lt;/font&gt;" style="rounded=0;whiteSpace=wrap;html=1;fillColor=#E6D0DE;" parent="WIyWlLk6GJQsqaUBKTNV-1" vertex="1">
          <mxGeometry x="-1370" y="-190" width="440" height="430" as="geometry" />
        </mxCell>
        <mxCell id="cNv1dug2NwwHb0u0l6bS-151" value="&lt;font style=&quot;font-size: 18px;&quot;&gt;SP_PlanBlock&lt;/font&gt;" style="rounded=0;whiteSpace=wrap;html=1;fillColor=#FFCE9F;" parent="WIyWlLk6GJQsqaUBKTNV-1" vertex="1">
          <mxGeometry x="-1370" y="40" width="210" height="200" as="geometry" />
        </mxCell>
        <mxCell id="cNv1dug2NwwHb0u0l6bS-157" value="&lt;font style=&quot;font-size: 18px;&quot;&gt;SP_PlanUnit&lt;/font&gt;" style="rounded=0;whiteSpace=wrap;html=1;fillColor=#FFF4C3;" parent="WIyWlLk6GJQsqaUBKTNV-1" vertex="1">
          <mxGeometry x="-1370" y="160" width="90" height="80" as="geometry" />
        </mxCell>
        <mxCell id="cNv1dug2NwwHb0u0l6bS-158" value="&lt;font style=&quot;font-size: 24px;&quot;&gt;Masterplan&lt;/font&gt;" style="rounded=0;whiteSpace=wrap;html=1;fillColor=#E6D0DE;" parent="WIyWlLk6GJQsqaUBKTNV-1" vertex="1">
          <mxGeometry x="-750" y="-190" width="440" height="430" as="geometry" />
        </mxCell>
        <mxCell id="cNv1dug2NwwHb0u0l6bS-159" value="Local Adaptation Plan" style="rounded=0;whiteSpace=wrap;html=1;fillColor=#FFCE9F;" parent="WIyWlLk6GJQsqaUBKTNV-1" vertex="1">
          <mxGeometry x="-750" y="40" width="210" height="200" as="geometry" />
        </mxCell>
        <mxCell id="cNv1dug2NwwHb0u0l6bS-160" value="Intervention" style="rounded=0;whiteSpace=wrap;html=1;fillColor=#FFF4C3;" parent="WIyWlLk6GJQsqaUBKTNV-1" vertex="1">
          <mxGeometry x="-750" y="160" width="90" height="80" as="geometry" />
        </mxCell>
        <mxCell id="8PfWSfrLphycb07iS4tt-0" value="&lt;font style=&quot;font-size: 14px;&quot;&gt;CLIMA_Intervention (SP_PlanUnit)&lt;/font&gt;" style="swimlane;fontStyle=0;childLayout=stackLayout;horizontal=1;startSize=26;fillColor=#FFCE9F;horizontalStack=0;resizeParent=1;resizeParentMax=0;resizeLast=0;collapsible=1;marginBottom=0;whiteSpace=wrap;html=1;" parent="WIyWlLk6GJQsqaUBKTNV-1" vertex="1">
          <mxGeometry x="1403" y="460" width="330" height="720" as="geometry">
            <mxRectangle x="1810" y="-860" width="100" height="30" as="alternateBounds" />
          </mxGeometry>
        </mxCell>
        <mxCell id="8PfWSfrLphycb07iS4tt-1" value="&lt;font style=&quot;font-size: 14px;&quot;&gt;+ puID: Oid&lt;/font&gt;" style="text;strokeColor=none;fillColor=none;align=left;verticalAlign=top;spacingLeft=4;spacingRight=4;overflow=hidden;rotatable=0;points=[[0,0.5],[1,0.5]];portConstraint=eastwest;whiteSpace=wrap;html=1;" parent="8PfWSfrLphycb07iS4tt-0" vertex="1">
          <mxGeometry y="26" width="330" height="26" as="geometry" />
        </mxCell>
        <mxCell id="8PfWSfrLphycb07iS4tt-2" value="&lt;font style=&quot;font-size: 14px;&quot;&gt;+ subFunctionName: CharacterString&lt;/font&gt;" style="text;strokeColor=none;fillColor=none;align=left;verticalAlign=top;spacingLeft=4;spacingRight=4;overflow=hidden;rotatable=0;points=[[0,0.5],[1,0.5]];portConstraint=eastwest;whiteSpace=wrap;html=1;" parent="8PfWSfrLphycb07iS4tt-0" vertex="1">
          <mxGeometry y="52" width="330" height="26" as="geometry" />
        </mxCell>
        <mxCell id="8PfWSfrLphycb07iS4tt-3" value="&lt;font style=&quot;font-size: 14px;&quot;&gt;+ subFunctionType: SP_SubSpaceFunction&lt;/font&gt;&lt;div&gt;&lt;font style=&quot;font-size: 14px;&quot;&gt;&lt;br&gt;&lt;/font&gt;&lt;/div&gt;&lt;div&gt;&lt;b&gt;&lt;font style=&quot;font-size: 14px;&quot;&gt;+&amp;nbsp;maxVolumeIndications:&amp;nbsp;LA_VolumeValue&lt;/font&gt;&lt;/b&gt;&lt;/div&gt;&lt;div&gt;&lt;b&gt;&lt;font style=&quot;font-size: 14px;&quot;&gt;&lt;br&gt;&lt;/font&gt;&lt;/b&gt;&lt;/div&gt;&lt;div&gt;&lt;b&gt;&lt;font style=&quot;font-size: 14px;&quot;&gt;+&amp;nbsp;maxAreaIndications:&amp;nbsp;LA_AreaValue&lt;/font&gt;&lt;/b&gt;&lt;/div&gt;&lt;div&gt;&lt;b&gt;&lt;font style=&quot;font-size: 14px;&quot;&gt;&lt;br&gt;&lt;/font&gt;&lt;/b&gt;&lt;/div&gt;&lt;div&gt;&lt;b&gt;&lt;font style=&quot;font-size: 14px;&quot;&gt;+&amp;nbsp;maxHeightIndications:&amp;nbsp;LA_LengthValue&lt;/font&gt;&lt;/b&gt;&lt;/div&gt;&lt;div&gt;&lt;font style=&quot;font-size: 14px;&quot;&gt;&lt;br&gt;&lt;/font&gt;&lt;/div&gt;&lt;div&gt;&lt;font style=&quot;font-size: 14px;&quot;&gt;+&amp;nbsp;unitIndications:&amp;nbsp;Integer&lt;/font&gt;&lt;/div&gt;&lt;div&gt;&lt;font style=&quot;font-size: 14px;&quot;&gt;&lt;br&gt;&lt;/font&gt;&lt;/div&gt;&lt;div&gt;&lt;font style=&quot;font-size: 14px;&quot;&gt;+&amp;nbsp;otherIndications:&amp;nbsp;CharacterString&lt;/font&gt;&lt;/div&gt;&lt;div&gt;&lt;font style=&quot;font-size: 14px;&quot;&gt;&lt;br&gt;&lt;/font&gt;&lt;/div&gt;&lt;div&gt;&lt;font style=&quot;font-size: 14px;&quot;&gt;+&amp;nbsp;typeOfBuildingIndications:&amp;nbsp;CharacterString&lt;/font&gt;&lt;/div&gt;&lt;div&gt;&lt;font style=&quot;font-size: 14px;&quot;&gt;&lt;br&gt;&lt;/font&gt;&lt;/div&gt;&lt;div&gt;&lt;font style=&quot;font-size: 14px;&quot;&gt;+&amp;nbsp;typeOfShapeIndications:&amp;nbsp;CharacterString&lt;/font&gt;&lt;/div&gt;&lt;div&gt;&lt;font style=&quot;font-size: 14px;&quot;&gt;&lt;br&gt;&lt;/font&gt;&lt;/div&gt;&lt;div&gt;&lt;font style=&quot;font-size: 14px;&quot;&gt;+&amp;nbsp;otherConstructionIndications:&amp;nbsp;CharacterString&lt;/font&gt;&lt;/div&gt;&lt;div&gt;&lt;font style=&quot;font-size: 14px;&quot;&gt;&lt;br&gt;&lt;/font&gt;&lt;/div&gt;&lt;div&gt;&lt;font style=&quot;font-size: 14px;&quot;&gt;+&amp;nbsp;referencePoint:&amp;nbsp;Point&lt;/font&gt;&lt;/div&gt;&lt;div&gt;&lt;font style=&quot;font-size: 14px;&quot;&gt;&lt;br&gt;&lt;/font&gt;&lt;/div&gt;&lt;div&gt;&lt;b&gt;&lt;font style=&quot;font-size: 14px;&quot;&gt;+&amp;nbsp;surfaceRelation:&amp;nbsp;LA_SurfaceRelationType&lt;/font&gt;&lt;/b&gt;&lt;/div&gt;&lt;div&gt;&lt;font style=&quot;font-size: 14px;&quot;&gt;&lt;br&gt;&lt;/font&gt;&lt;/div&gt;&lt;div&gt;&lt;font style=&quot;font-size: 14px;&quot;&gt;+&amp;nbsp;currentArea:&amp;nbsp;LA_AreaValue&lt;/font&gt;&lt;/div&gt;&lt;div&gt;&lt;font style=&quot;font-size: 14px;&quot;&gt;&lt;br&gt;&lt;/font&gt;&lt;/div&gt;&lt;div&gt;&lt;font style=&quot;font-size: 14px;&quot;&gt;+&amp;nbsp;currentVolume:&amp;nbsp;LA_VolumeValue&lt;/font&gt;&lt;/div&gt;&lt;div&gt;&lt;font style=&quot;font-size: 14px;&quot;&gt;&lt;br&gt;&lt;/font&gt;&lt;/div&gt;&lt;div&gt;&lt;font style=&quot;font-size: 14px;&quot;&gt;+&amp;nbsp;featureProtected:&amp;nbsp;CharacterString&lt;/font&gt;&lt;/div&gt;&lt;div&gt;&lt;font style=&quot;font-size: 14px;&quot;&gt;&lt;br&gt;&lt;/font&gt;&lt;/div&gt;&lt;div&gt;&lt;font style=&quot;font-size: 14px;&quot;&gt;+&amp;nbsp;statusType:&amp;nbsp;SP_StatusType&lt;/font&gt;&lt;/div&gt;&lt;div&gt;&lt;font style=&quot;font-size: 14px;&quot;&gt;&lt;br&gt;&lt;/font&gt;&lt;/div&gt;&lt;div&gt;&lt;b&gt;&lt;u&gt;&lt;font style=&quot;font-size: 14px;&quot;&gt;+ subInfoRequirements: CLIMA_SubInfoReq&lt;/font&gt;&lt;/u&gt;&lt;/b&gt;&lt;/div&gt;&lt;div&gt;&lt;b&gt;&lt;u&gt;&lt;font style=&quot;font-size: 14px;&quot;&gt;&lt;br&gt;&lt;/font&gt;&lt;/u&gt;&lt;/b&gt;&lt;/div&gt;&lt;div&gt;&lt;b&gt;&lt;u&gt;&lt;font style=&quot;font-size: 14px;&quot;&gt;+ depthUndergroundMm: Integer&lt;/font&gt;&lt;/u&gt;&lt;/b&gt;&lt;/div&gt;&lt;div&gt;&lt;b&gt;&lt;u&gt;&lt;font style=&quot;font-size: 14px;&quot;&gt;&lt;br&gt;&lt;/font&gt;&lt;/u&gt;&lt;/b&gt;&lt;/div&gt;&lt;div&gt;&lt;b&gt;&lt;u&gt;&lt;font style=&quot;font-size: 14px;&quot;&gt;+ resolutionRequirement:&amp;nbsp;&lt;span style=&quot;background-color: initial;&quot;&gt;CharacterString&lt;/span&gt;&lt;/font&gt;&lt;/u&gt;&lt;/b&gt;&lt;/div&gt;&lt;div&gt;&lt;b&gt;&lt;u&gt;&lt;span style=&quot;background-color: initial;&quot;&gt;&lt;font style=&quot;font-size: 14px;&quot;&gt;&lt;br&gt;&lt;/font&gt;&lt;/span&gt;&lt;/u&gt;&lt;/b&gt;&lt;/div&gt;&lt;div&gt;&lt;font style=&quot;font-size: 14px;&quot;&gt;&lt;b&gt;&lt;u&gt;&lt;span style=&quot;background-color: initial;&quot;&gt;+ nationalGuideline:&amp;nbsp;&lt;/span&gt;&lt;/u&gt;&lt;/b&gt;&lt;b style=&quot;background-color: initial;&quot;&gt;&lt;u&gt;&lt;span style=&quot;background-color: initial;&quot;&gt;CharacterString&lt;/span&gt;&lt;/u&gt;&lt;/b&gt;&lt;/font&gt;&lt;/div&gt;&lt;div&gt;&lt;b style=&quot;background-color: initial;&quot;&gt;&lt;u&gt;&lt;span style=&quot;background-color: initial;&quot;&gt;&lt;font style=&quot;font-size: 14px;&quot;&gt;&lt;br&gt;&lt;/font&gt;&lt;/span&gt;&lt;/u&gt;&lt;/b&gt;&lt;/div&gt;&lt;div&gt;&lt;font style=&quot;font-size: 14px;&quot;&gt;&lt;b style=&quot;background-color: initial;&quot;&gt;&lt;u&gt;&lt;span style=&quot;background-color: initial;&quot;&gt;+ localGuideline:&amp;nbsp;&lt;/span&gt;&lt;/u&gt;&lt;/b&gt;&lt;b style=&quot;background-color: initial;&quot;&gt;&lt;u&gt;&lt;span style=&quot;background-color: initial;&quot;&gt;CharacterString&lt;/span&gt;&lt;/u&gt;&lt;/b&gt;&lt;/font&gt;&lt;/div&gt;&lt;div&gt;&lt;span style=&quot;background-color: initial;&quot;&gt;&lt;font size=&quot;3&quot;&gt;&lt;br&gt;&lt;/font&gt;&lt;/span&gt;&lt;/div&gt;&lt;div&gt;&lt;span style=&quot;background-color: initial;&quot;&gt;&lt;font size=&quot;3&quot;&gt;&lt;br&gt;&lt;/font&gt;&lt;/span&gt;&lt;/div&gt;&lt;div&gt;&lt;font size=&quot;3&quot;&gt;&lt;br&gt;&lt;/font&gt;&lt;/div&gt;&lt;div&gt;&lt;font size=&quot;3&quot;&gt;&lt;br&gt;&lt;/font&gt;&lt;/div&gt;&lt;div&gt;&lt;br&gt;&lt;/div&gt;" style="text;strokeColor=none;fillColor=none;align=left;verticalAlign=top;spacingLeft=4;spacingRight=4;overflow=hidden;rotatable=0;points=[[0,0.5],[1,0.5]];portConstraint=eastwest;whiteSpace=wrap;html=1;" parent="8PfWSfrLphycb07iS4tt-0" vertex="1">
          <mxGeometry y="78" width="330" height="642" as="geometry" />
        </mxCell>
        <mxCell id="8PfWSfrLphycb07iS4tt-4" value="&lt;div&gt;&lt;font style=&quot;font-size: 14px;&quot;&gt;Additional information regarding subsurface properties and the main climate challenges&lt;/font&gt;&lt;/div&gt;" style="shape=callout;whiteSpace=wrap;html=1;perimeter=calloutPerimeter;position2=0.42;fillColor=#E6D0DE;" parent="WIyWlLk6GJQsqaUBKTNV-1" vertex="1">
          <mxGeometry x="1140" y="809" width="220" height="120" as="geometry" />
        </mxCell>
        <mxCell id="8PfWSfrLphycb07iS4tt-6" value="&lt;font style=&quot;font-size: 14px;&quot;&gt;CLIMA_LocalPlan (SP_PlanBlock)&lt;/font&gt;" style="swimlane;fontStyle=0;childLayout=stackLayout;horizontal=1;startSize=26;fillColor=#FFCE9F;horizontalStack=0;resizeParent=1;resizeParentMax=0;resizeLast=0;collapsible=1;marginBottom=0;whiteSpace=wrap;html=1;" parent="WIyWlLk6GJQsqaUBKTNV-1" vertex="1">
          <mxGeometry x="743" y="500" width="380" height="560" as="geometry">
            <mxRectangle x="1810" y="-860" width="100" height="30" as="alternateBounds" />
          </mxGeometry>
        </mxCell>
        <mxCell id="8PfWSfrLphycb07iS4tt-7" value="&lt;i&gt;&lt;font style=&quot;font-size: 14px;&quot;&gt;+ pbID: Oid&lt;/font&gt;&lt;/i&gt;" style="text;strokeColor=none;fillColor=none;align=left;verticalAlign=top;spacingLeft=4;spacingRight=4;overflow=hidden;rotatable=0;points=[[0,0.5],[1,0.5]];portConstraint=eastwest;whiteSpace=wrap;html=1;" parent="8PfWSfrLphycb07iS4tt-6" vertex="1">
          <mxGeometry y="26" width="380" height="26" as="geometry" />
        </mxCell>
        <mxCell id="8PfWSfrLphycb07iS4tt-8" value="&lt;i&gt;&lt;font style=&quot;font-size: 14px;&quot;&gt;+ blockName: CharacterString&lt;/font&gt;&lt;/i&gt;" style="text;strokeColor=none;fillColor=none;align=left;verticalAlign=top;spacingLeft=4;spacingRight=4;overflow=hidden;rotatable=0;points=[[0,0.5],[1,0.5]];portConstraint=eastwest;whiteSpace=wrap;html=1;" parent="8PfWSfrLphycb07iS4tt-6" vertex="1">
          <mxGeometry y="52" width="380" height="26" as="geometry" />
        </mxCell>
        <mxCell id="8PfWSfrLphycb07iS4tt-9" value="&lt;i&gt;&lt;font style=&quot;font-size: 14px;&quot;&gt;+ functionType: SP_SpaceFunction&lt;/font&gt;&lt;/i&gt;&lt;div&gt;&lt;i&gt;&lt;font style=&quot;font-size: 18px;&quot;&gt;&lt;br&gt;&lt;/font&gt;&lt;/i&gt;&lt;/div&gt;&lt;div&gt;&lt;i&gt;&lt;font style=&quot;font-size: 14px;&quot;&gt;+ protectedSite: SP_ProtectedClassificationValue&lt;br&gt;&lt;/font&gt;&lt;/i&gt;&lt;div&gt;&lt;i&gt;&lt;font style=&quot;font-size: 14px;&quot;&gt;&lt;br&gt;&lt;/font&gt;&lt;/i&gt;&lt;/div&gt;&lt;div&gt;&lt;i&gt;&lt;font style=&quot;font-size: 14px;&quot;&gt;+&amp;nbsp;naturalRiskSafetyArea:&amp;nbsp;SP_NaturalRiskSafetyAreaType&lt;/font&gt;&lt;/i&gt;&lt;/div&gt;&lt;div&gt;&lt;i&gt;&lt;font style=&quot;font-size: 14px;&quot;&gt;&lt;br&gt;&lt;/font&gt;&lt;/i&gt;&lt;/div&gt;&lt;div&gt;&lt;i&gt;&lt;font style=&quot;font-size: 14px;&quot;&gt;+&amp;nbsp;restrictionZone:&amp;nbsp;SP_RestrictionZoneType&lt;/font&gt;&lt;/i&gt;&lt;/div&gt;&lt;div&gt;&lt;i&gt;&lt;font style=&quot;font-size: 14px;&quot;&gt;&lt;br&gt;&lt;/font&gt;&lt;/i&gt;&lt;/div&gt;&lt;div&gt;&lt;i&gt;&lt;font style=&quot;font-size: 14px;&quot;&gt;+&amp;nbsp;constraintName:&amp;nbsp;CharacterString&lt;/font&gt;&lt;/i&gt;&lt;/div&gt;&lt;div&gt;&lt;i&gt;&lt;font style=&quot;font-size: 14px;&quot;&gt;&lt;br&gt;&lt;/font&gt;&lt;/i&gt;&lt;/div&gt;&lt;div&gt;&lt;i&gt;&lt;font style=&quot;font-size: 14px;&quot;&gt;+&amp;nbsp;constraintDescription:&amp;nbsp;CharacterString&lt;/font&gt;&lt;/i&gt;&lt;/div&gt;&lt;div&gt;&lt;i&gt;&lt;font style=&quot;font-size: 14px;&quot;&gt;&lt;br&gt;&lt;/font&gt;&lt;/i&gt;&lt;/div&gt;&lt;div&gt;&lt;i&gt;&lt;font style=&quot;font-size: 14px;&quot;&gt;+&amp;nbsp;&lt;span style=&quot;background-color: initial;&quot;&gt;technologicalRiskSafetyAre&lt;/span&gt;&lt;span style=&quot;background-color: initial;&quot;&gt;a&lt;/span&gt;:&amp;nbsp;CharacterString&lt;/font&gt;&lt;/i&gt;&lt;/div&gt;&lt;div&gt;&lt;i&gt;&lt;font style=&quot;font-size: 14px;&quot;&gt;&lt;br&gt;&lt;/font&gt;&lt;/i&gt;&lt;/div&gt;&lt;div&gt;&lt;i&gt;&lt;font style=&quot;font-size: 14px;&quot;&gt;+&amp;nbsp;miningRisksSafetyArea:&amp;nbsp;CharacterString&lt;/font&gt;&lt;/i&gt;&lt;/div&gt;&lt;div&gt;&lt;i&gt;&lt;font style=&quot;font-size: 14px;&quot;&gt;&lt;br&gt;&lt;/font&gt;&lt;/i&gt;&lt;/div&gt;&lt;div&gt;&lt;div&gt;&lt;b&gt;&lt;u&gt;&lt;font style=&quot;font-size: 14px;&quot;&gt;&amp;nbsp;+ climateTheme: CLIMA_ClimateTheme&lt;/font&gt;&lt;/u&gt;&lt;/b&gt;&lt;/div&gt;&lt;div&gt;&lt;u&gt;&lt;font style=&quot;font-size: 14px;&quot;&gt;&lt;br&gt;&lt;/font&gt;&lt;/u&gt;&lt;/div&gt;&lt;div&gt;&lt;b&gt;&lt;u&gt;&lt;font style=&quot;font-size: 14px;&quot;&gt;&amp;nbsp;+ soilType: CLIMA_SoilType&lt;/font&gt;&lt;/u&gt;&lt;/b&gt;&lt;/div&gt;&lt;div&gt;&lt;b&gt;&lt;u&gt;&lt;font style=&quot;font-size: 14px;&quot;&gt;&lt;br&gt;&lt;/font&gt;&lt;/u&gt;&lt;/b&gt;&lt;/div&gt;&lt;div&gt;&lt;b&gt;&lt;u&gt;&lt;font style=&quot;font-size: 14px;&quot;&gt;&amp;nbsp;+ subsurfaceCongestion: CLIMA_SubCongestion&lt;/font&gt;&lt;/u&gt;&lt;/b&gt;&lt;/div&gt;&lt;div&gt;&lt;b&gt;&lt;u&gt;&lt;font size=&quot;3&quot;&gt;&lt;br&gt;&lt;/font&gt;&lt;/u&gt;&lt;/b&gt;&lt;/div&gt;&lt;div&gt;&lt;b&gt;&lt;u&gt;&lt;font size=&quot;3&quot;&gt;&amp;nbsp;+ groundWaterLevel: CLIMA_GroundWater&lt;/font&gt;&lt;/u&gt;&lt;/b&gt;&lt;/div&gt;&lt;div&gt;&lt;b&gt;&lt;u&gt;&lt;font size=&quot;3&quot;&gt;&lt;br&gt;&lt;/font&gt;&lt;/u&gt;&lt;/b&gt;&lt;/div&gt;&lt;div&gt;&lt;b&gt;&lt;u&gt;&lt;font size=&quot;3&quot;&gt;&amp;nbsp;+ geomechanics: CLIMA_Geomechanics&lt;/font&gt;&lt;/u&gt;&lt;/b&gt;&lt;/div&gt;&lt;/div&gt;&lt;div&gt;&lt;font size=&quot;3&quot;&gt;&lt;br&gt;&lt;/font&gt;&lt;/div&gt;&lt;div&gt;&lt;br&gt;&lt;/div&gt;&lt;/div&gt;" style="text;strokeColor=none;fillColor=none;align=left;verticalAlign=top;spacingLeft=4;spacingRight=4;overflow=hidden;rotatable=0;points=[[0,0.5],[1,0.5]];portConstraint=eastwest;whiteSpace=wrap;html=1;" parent="8PfWSfrLphycb07iS4tt-6" vertex="1">
          <mxGeometry y="78" width="380" height="482" as="geometry" />
        </mxCell>
        <mxCell id="8PfWSfrLphycb07iS4tt-10" value="" style="endArrow=diamondThin;endFill=0;endSize=24;html=1;rounded=0;exitX=0.003;exitY=0.317;exitDx=0;exitDy=0;entryX=0.999;entryY=0.347;entryDx=0;entryDy=0;entryPerimeter=0;exitPerimeter=0;" parent="WIyWlLk6GJQsqaUBKTNV-1" source="8PfWSfrLphycb07iS4tt-3" target="8PfWSfrLphycb07iS4tt-9" edge="1">
          <mxGeometry width="160" relative="1" as="geometry">
            <mxPoint x="1090" y="960" as="sourcePoint" />
            <mxPoint x="908" y="820" as="targetPoint" />
          </mxGeometry>
        </mxCell>
        <mxCell id="8PfWSfrLphycb07iS4tt-11" value="&lt;font style=&quot;font-size: 14px;&quot;&gt;CLIMA_Masterplan (SP_PlanGroup)&lt;/font&gt;" style="swimlane;fontStyle=0;childLayout=stackLayout;horizontal=1;startSize=26;fillColor=#FFCE9F;horizontalStack=0;resizeParent=1;resizeParentMax=0;resizeLast=0;collapsible=1;marginBottom=0;whiteSpace=wrap;html=1;" parent="WIyWlLk6GJQsqaUBKTNV-1" vertex="1">
          <mxGeometry x="763" y="150" width="330" height="200" as="geometry">
            <mxRectangle x="1810" y="-860" width="100" height="30" as="alternateBounds" />
          </mxGeometry>
        </mxCell>
        <mxCell id="8PfWSfrLphycb07iS4tt-12" value="&lt;i&gt;&lt;font style=&quot;font-size: 14px;&quot;&gt;+ pgID: Oid&lt;/font&gt;&lt;/i&gt;" style="text;strokeColor=none;fillColor=none;align=left;verticalAlign=top;spacingLeft=4;spacingRight=4;overflow=hidden;rotatable=0;points=[[0,0.5],[1,0.5]];portConstraint=eastwest;whiteSpace=wrap;html=1;" parent="8PfWSfrLphycb07iS4tt-11" vertex="1">
          <mxGeometry y="26" width="330" height="26" as="geometry" />
        </mxCell>
        <mxCell id="8PfWSfrLphycb07iS4tt-13" value="&lt;i&gt;&lt;font style=&quot;font-size: 14px;&quot;&gt;+ hierarchyLevel: Integer&lt;/font&gt;&lt;/i&gt;" style="text;strokeColor=none;fillColor=none;align=left;verticalAlign=top;spacingLeft=4;spacingRight=4;overflow=hidden;rotatable=0;points=[[0,0.5],[1,0.5]];portConstraint=eastwest;whiteSpace=wrap;html=1;" parent="8PfWSfrLphycb07iS4tt-11" vertex="1">
          <mxGeometry y="52" width="330" height="26" as="geometry" />
        </mxCell>
        <mxCell id="8PfWSfrLphycb07iS4tt-14" value="&lt;i&gt;&lt;font style=&quot;font-size: 14px;&quot;&gt;+ label: CharacterString&lt;/font&gt;&lt;/i&gt;&lt;div&gt;&lt;i&gt;&lt;br&gt;&lt;/i&gt;&lt;/div&gt;&lt;div&gt;&lt;i&gt;&lt;font style=&quot;font-size: 14px;&quot;&gt;+ referencePoint:&amp;nbsp;Point&lt;/font&gt;&lt;/i&gt;&lt;/div&gt;&lt;div&gt;&lt;br&gt;&lt;/div&gt;&lt;div&gt;&lt;b&gt;&lt;u&gt;&lt;font style=&quot;font-size: 14px;&quot;&gt;+ responsible: CharacterString&lt;/font&gt;&lt;/u&gt;&lt;/b&gt;&lt;/div&gt;&lt;div&gt;&lt;b&gt;&lt;u&gt;&lt;br&gt;&lt;/u&gt;&lt;/b&gt;&lt;/div&gt;&lt;div&gt;&lt;b&gt;&lt;u&gt;&lt;font style=&quot;font-size: 14px;&quot;&gt;+ source: CharacterString&lt;/font&gt;&lt;/u&gt;&lt;/b&gt;&lt;br&gt;&lt;div&gt;&lt;br&gt;&lt;/div&gt;&lt;div&gt;&lt;br&gt;&lt;/div&gt;&lt;/div&gt;" style="text;strokeColor=none;fillColor=none;align=left;verticalAlign=top;spacingLeft=4;spacingRight=4;overflow=hidden;rotatable=0;points=[[0,0.5],[1,0.5]];portConstraint=eastwest;whiteSpace=wrap;html=1;" parent="8PfWSfrLphycb07iS4tt-11" vertex="1">
          <mxGeometry y="78" width="330" height="122" as="geometry" />
        </mxCell>
        <mxCell id="8PfWSfrLphycb07iS4tt-15" value="&lt;div style=&quot;text-align: center;&quot;&gt;&lt;span style=&quot;background-color: initial; text-align: start;&quot;&gt;&lt;font style=&quot;font-size: 14px;&quot;&gt;Additional information regarding who is&lt;/font&gt; &lt;font style=&quot;font-size: 14px;&quot;&gt;responsible for the plan and its source&lt;/font&gt;&lt;/span&gt;&lt;span style=&quot;background-color: initial; text-wrap: nowrap; color: rgba(0, 0, 0, 0); font-family: monospace; font-size: 0px; text-align: start;&quot;&gt;%3E%3Croot%3E%3CmxCell%20id%3D%220%22%2F%3E%3CmxCell%20id%3D%221%22%20parent%3D%220%22%2F%3E%3CmxCell%20id%3D%222%22%20value%3D%22%26lt%3Bdiv%26gt%3BRequirement%204%3A%20Spatial%20plan%26amp%3Bnbsp%3B%26lt%3B%2Fdiv%26gt%3B%26lt%3Bdiv%26gt%3Binformation%20compliant%20with%26amp%3Bnbsp%3B%26lt%3B%2Fdiv%26gt%3B%26lt%3Bdiv%26gt%3Bthis%20part%20of%20LADM%20shall%26lt%3B%2Fdiv%26gt%3B%26lt%3Bdiv%26gt%3Borganize%26lt%3Bspan%20style%3D%26quot%3Bbackground-color%3A%20initial%3B%26quot%3B%26gt%3B%26amp%3Bnbsp%3Bplan%20units%26lt%3B%2Fspan%26gt%3B%26lt%3B%2Fdiv%26gt%3B%26lt%3Bdiv%26gt%3B(plan%20zones)%20in%20plan%20block%2C%26lt%3B%2Fdiv%26gt%3B%22%20style%3D%22shape%3Dcallout%3BwhiteSpace%3Dwrap%3Bhtml%3D1%3Bperimeter%3DcalloutPerimeter%3Bposition2%3D0.73%3BfillColor%3D%23E6D0DE%3B%22%20vertex%3D%221%22%20parent%3D%221%22%3E%3CmxGeometry%20x%3D%221510%22%20y%3D%22-1110%22%20width%3D%22260%22%20height%3D%22120%22%20as%3D%22geometry%22%2F%3E%3C%2FmxCell%3E%3C%2Froot%3E%3C%2FmxGraphModel%3E&lt;/span&gt;&lt;/div&gt;" style="shape=callout;whiteSpace=wrap;html=1;perimeter=calloutPerimeter;position2=0.67;fillColor=#E6D0DE;" parent="WIyWlLk6GJQsqaUBKTNV-1" vertex="1">
          <mxGeometry x="490" y="150" width="258" height="110" as="geometry" />
        </mxCell>
        <mxCell id="8PfWSfrLphycb07iS4tt-16" value="" style="endArrow=diamondThin;endFill=0;endSize=24;html=1;rounded=0;exitX=0.48;exitY=0.003;exitDx=0;exitDy=0;exitPerimeter=0;entryX=0.5;entryY=1;entryDx=0;entryDy=0;" parent="WIyWlLk6GJQsqaUBKTNV-1" source="8PfWSfrLphycb07iS4tt-6" edge="1" target="8PfWSfrLphycb07iS4tt-11">
          <mxGeometry width="160" relative="1" as="geometry">
            <mxPoint x="900" y="500" as="sourcePoint" />
            <mxPoint x="900" y="350" as="targetPoint" />
          </mxGeometry>
        </mxCell>
        <mxCell id="8PfWSfrLphycb07iS4tt-17" value="&lt;font style=&quot;font-size: 14px;&quot;&gt;SP_Permit&lt;/font&gt;" style="swimlane;fontStyle=0;childLayout=stackLayout;horizontal=1;startSize=26;fillColor=#FFF4C3;horizontalStack=0;resizeParent=1;resizeParentMax=0;resizeLast=0;collapsible=1;marginBottom=0;whiteSpace=wrap;html=1;" parent="WIyWlLk6GJQsqaUBKTNV-1" vertex="1">
          <mxGeometry x="1795" y="470" width="330" height="250" as="geometry">
            <mxRectangle x="1810" y="-860" width="100" height="30" as="alternateBounds" />
          </mxGeometry>
        </mxCell>
        <mxCell id="8PfWSfrLphycb07iS4tt-18" value="&lt;font style=&quot;font-size: 14px;&quot;&gt;+ pID: Oid&lt;/font&gt;" style="text;strokeColor=none;fillColor=none;align=left;verticalAlign=top;spacingLeft=4;spacingRight=4;overflow=hidden;rotatable=0;points=[[0,0.5],[1,0.5]];portConstraint=eastwest;whiteSpace=wrap;html=1;" parent="8PfWSfrLphycb07iS4tt-17" vertex="1">
          <mxGeometry y="26" width="330" height="26" as="geometry" />
        </mxCell>
        <mxCell id="8PfWSfrLphycb07iS4tt-19" value="&lt;font style=&quot;font-size: 14px;&quot;&gt;+ typeOfPermit:&amp;nbsp;SP_PermitType&lt;/font&gt;" style="text;strokeColor=none;fillColor=none;align=left;verticalAlign=top;spacingLeft=4;spacingRight=4;overflow=hidden;rotatable=0;points=[[0,0.5],[1,0.5]];portConstraint=eastwest;whiteSpace=wrap;html=1;" parent="8PfWSfrLphycb07iS4tt-17" vertex="1">
          <mxGeometry y="52" width="330" height="26" as="geometry" />
        </mxCell>
        <mxCell id="8PfWSfrLphycb07iS4tt-20" value="&lt;font style=&quot;font-size: 14px;&quot;&gt;+ name: CharacterString&lt;/font&gt;&lt;div&gt;&lt;font style=&quot;font-size: 14px;&quot;&gt;&lt;br&gt;&lt;/font&gt;&lt;div&gt;&lt;font style=&quot;font-size: 14px;&quot;&gt;+ description:&amp;nbsp;CharacterString&lt;/font&gt;&lt;/div&gt;&lt;div&gt;&lt;font style=&quot;font-size: 14px;&quot;&gt;&lt;br&gt;&lt;/font&gt;&lt;div&gt;&lt;font style=&quot;font-size: 14px;&quot;&gt;+&amp;nbsp;decisionDate:&amp;nbsp;DateTime&lt;/font&gt;&lt;/div&gt;&lt;div&gt;&lt;font style=&quot;font-size: 14px;&quot;&gt;&lt;br&gt;&lt;/font&gt;&lt;/div&gt;&lt;div&gt;&lt;font style=&quot;font-size: 14px;&quot;&gt;+&amp;nbsp;duration:&amp;nbsp;CharacterString&lt;/font&gt;&lt;/div&gt;&lt;div&gt;&lt;font style=&quot;font-size: 14px;&quot;&gt;&lt;br&gt;&lt;/font&gt;&lt;/div&gt;&lt;div&gt;&lt;font style=&quot;font-size: 14px;&quot;&gt;+&amp;nbsp;period:&amp;nbsp;CharacterString&lt;/font&gt;&lt;/div&gt;&lt;div&gt;&lt;font size=&quot;3&quot;&gt;&lt;br&gt;&lt;/font&gt;&lt;/div&gt;&lt;div&gt;&lt;br&gt;&lt;/div&gt;&lt;/div&gt;&lt;/div&gt;" style="text;strokeColor=none;fillColor=none;align=left;verticalAlign=top;spacingLeft=4;spacingRight=4;overflow=hidden;rotatable=0;points=[[0,0.5],[1,0.5]];portConstraint=eastwest;whiteSpace=wrap;html=1;" parent="8PfWSfrLphycb07iS4tt-17" vertex="1">
          <mxGeometry y="78" width="330" height="172" as="geometry" />
        </mxCell>
        <mxCell id="8PfWSfrLphycb07iS4tt-21" value="" style="endArrow=none;html=1;edgeStyle=orthogonalEdgeStyle;rounded=0;entryX=0;entryY=0.5;entryDx=0;entryDy=0;exitX=1.006;exitY=0.343;exitDx=0;exitDy=0;exitPerimeter=0;" parent="WIyWlLk6GJQsqaUBKTNV-1" source="8PfWSfrLphycb07iS4tt-3" target="8PfWSfrLphycb07iS4tt-20" edge="1">
          <mxGeometry relative="1" as="geometry">
            <mxPoint x="1050" y="1160" as="sourcePoint" />
            <mxPoint x="1210" y="1160" as="targetPoint" />
          </mxGeometry>
        </mxCell>
        <mxCell id="8PfWSfrLphycb07iS4tt-23" value="&lt;p style=&quot;margin:0px;margin-top:4px;text-align:center;&quot;&gt;&lt;font style=&quot;font-size: 14px;&quot;&gt;&lt;i style=&quot;background-color: initial;&quot;&gt;&amp;lt;&amp;lt;Code List&amp;gt;&amp;gt;&lt;/i&gt;&lt;br&gt;&lt;/font&gt;&lt;/p&gt;&lt;p style=&quot;margin:0px;margin-top:4px;text-align:center;&quot;&gt;&lt;b&gt;&lt;font style=&quot;font-size: 14px;&quot;&gt;CLIMA_ClimateTheme&lt;/font&gt;&lt;/b&gt;&lt;/p&gt;&lt;hr size=&quot;1&quot; style=&quot;border-style:solid;&quot;&gt;&lt;p style=&quot;margin:0px;margin-left:4px;&quot;&gt;&lt;font style=&quot;font-size: 14px;&quot;&gt;+ Waterlogging&lt;/font&gt;&lt;/p&gt;&lt;p style=&quot;margin:0px;margin-left:4px;&quot;&gt;&lt;font style=&quot;font-size: 14px;&quot;&gt;+ Flood&lt;/font&gt;&lt;/p&gt;&lt;p style=&quot;margin:0px;margin-left:4px;&quot;&gt;&lt;font style=&quot;font-size: 14px;&quot;&gt;+ Drought&lt;/font&gt;&lt;/p&gt;&lt;p style=&quot;margin:0px;margin-left:4px;&quot;&gt;&lt;font style=&quot;font-size: 14px;&quot;&gt;+ Biodiversity&lt;/font&gt;&lt;/p&gt;&lt;p style=&quot;margin:0px;margin-left:4px;&quot;&gt;&lt;font style=&quot;font-size: 14px;&quot;&gt;+ Heat&lt;/font&gt;&lt;/p&gt;&lt;p style=&quot;margin:0px;margin-left:4px;&quot;&gt;&lt;font style=&quot;font-size: 14px;&quot;&gt;+ Mixed&lt;/font&gt;&lt;/p&gt;&lt;p style=&quot;margin:0px;margin-left:4px;&quot;&gt;&lt;font style=&quot;font-size: 14px;&quot;&gt;+ Unkown&lt;/font&gt;&lt;/p&gt;&lt;p style=&quot;margin:0px;margin-left:4px;&quot;&gt;&lt;font size=&quot;3&quot;&gt;&lt;br&gt;&lt;/font&gt;&lt;/p&gt;&lt;p style=&quot;margin:0px;margin-left:4px;&quot;&gt;&lt;br&gt;&lt;/p&gt;" style="verticalAlign=top;align=left;overflow=fill;html=1;whiteSpace=wrap;fillColor=#E6E6E6;" parent="WIyWlLk6GJQsqaUBKTNV-1" vertex="1">
          <mxGeometry x="493" y="350" width="210" height="180" as="geometry" />
        </mxCell>
        <mxCell id="8PfWSfrLphycb07iS4tt-24" value="&lt;p style=&quot;margin:0px;margin-top:4px;text-align:center;&quot;&gt;&lt;font style=&quot;font-size: 14px;&quot;&gt;&lt;i style=&quot;background-color: initial;&quot;&gt;&amp;lt;&amp;lt;Code List&amp;gt;&amp;gt;&lt;/i&gt;&lt;br&gt;&lt;/font&gt;&lt;/p&gt;&lt;p style=&quot;margin:0px;margin-top:4px;text-align:center;&quot;&gt;&lt;b&gt;&lt;font style=&quot;font-size: 14px;&quot;&gt;CLIMA_SoilType&lt;/font&gt;&lt;/b&gt;&lt;/p&gt;&lt;hr size=&quot;1&quot; style=&quot;border-style:solid;&quot;&gt;&lt;p style=&quot;margin:0px;margin-left:4px;&quot;&gt;&lt;font style=&quot;font-size: 14px;&quot;&gt;+ Sand&lt;/font&gt;&lt;/p&gt;&lt;p style=&quot;margin:0px;margin-left:4px;&quot;&gt;&lt;font style=&quot;font-size: 14px;&quot;&gt;+ Clay&lt;/font&gt;&lt;/p&gt;&lt;p style=&quot;margin:0px;margin-left:4px;&quot;&gt;&lt;font style=&quot;font-size: 14px;&quot;&gt;+ Peat&lt;/font&gt;&lt;/p&gt;&lt;p style=&quot;margin:0px;margin-left:4px;&quot;&gt;&lt;font style=&quot;font-size: 14px;&quot;&gt;+ Mixed&lt;/font&gt;&lt;/p&gt;&lt;p style=&quot;margin:0px;margin-left:4px;&quot;&gt;&lt;font style=&quot;font-size: 14px;&quot;&gt;+ Unknown&lt;/font&gt;&lt;/p&gt;&lt;p style=&quot;margin:0px;margin-left:4px;&quot;&gt;&lt;br&gt;&lt;/p&gt;&lt;p style=&quot;margin:0px;margin-left:4px;&quot;&gt;&lt;br&gt;&lt;/p&gt;" style="verticalAlign=top;align=left;overflow=fill;html=1;whiteSpace=wrap;fillColor=#E6E6E6;" parent="WIyWlLk6GJQsqaUBKTNV-1" vertex="1">
          <mxGeometry x="493" y="550" width="210" height="150" as="geometry" />
        </mxCell>
        <mxCell id="8PfWSfrLphycb07iS4tt-25" value="&lt;p style=&quot;margin:0px;margin-top:4px;text-align:center;&quot;&gt;&lt;font style=&quot;font-size: 14px;&quot;&gt;&lt;i style=&quot;background-color: initial;&quot;&gt;&amp;lt;&amp;lt;Code List&amp;gt;&amp;gt;&lt;/i&gt;&lt;br&gt;&lt;/font&gt;&lt;/p&gt;&lt;p style=&quot;margin:0px;margin-top:4px;text-align:center;&quot;&gt;&lt;b&gt;&lt;font style=&quot;font-size: 14px;&quot;&gt;CLIMA_GroundWater&lt;/font&gt;&lt;/b&gt;&lt;/p&gt;&lt;hr size=&quot;1&quot; style=&quot;border-style:solid;&quot;&gt;&lt;p style=&quot;margin:0px;margin-left:4px;&quot;&gt;&lt;font style=&quot;font-size: 14px;&quot;&gt;+ Bellow0.7m&lt;/font&gt;&lt;/p&gt;&lt;p style=&quot;margin:0px;margin-left:4px;&quot;&gt;&lt;font style=&quot;font-size: 14px;&quot;&gt;+ Above0.7mBellow1m&lt;/font&gt;&lt;/p&gt;&lt;p style=&quot;margin:0px;margin-left:4px;&quot;&gt;&lt;font style=&quot;font-size: 14px;&quot;&gt;+ Above1m&lt;/font&gt;&lt;/p&gt;&lt;p style=&quot;margin:0px;margin-left:4px;&quot;&gt;&lt;span style=&quot;background-color: initial;&quot;&gt;&lt;font style=&quot;font-size: 14px;&quot;&gt;+ Mixed&lt;/font&gt;&lt;/span&gt;&lt;/p&gt;&lt;p style=&quot;margin:0px;margin-left:4px;&quot;&gt;&lt;font style=&quot;font-size: 14px;&quot;&gt;+ Unknown&lt;/font&gt;&lt;/p&gt;&lt;p style=&quot;margin:0px;margin-left:4px;&quot;&gt;&lt;br&gt;&lt;/p&gt;&lt;p style=&quot;margin:0px;margin-left:4px;&quot;&gt;&lt;br&gt;&lt;/p&gt;" style="verticalAlign=top;align=left;overflow=fill;html=1;whiteSpace=wrap;fillColor=#E6E6E6;" parent="WIyWlLk6GJQsqaUBKTNV-1" vertex="1">
          <mxGeometry x="493" y="870" width="210" height="150" as="geometry" />
        </mxCell>
        <mxCell id="8PfWSfrLphycb07iS4tt-26" value="&lt;p style=&quot;margin:0px;margin-top:4px;text-align:center;&quot;&gt;&lt;i style=&quot;background-color: initial;&quot;&gt;&lt;font style=&quot;font-size: 14px;&quot;&gt;&amp;lt;&amp;lt;Code List&amp;gt;&amp;gt;&lt;/font&gt;&lt;/i&gt;&lt;br&gt;&lt;/p&gt;&lt;p style=&quot;margin:0px;margin-top:4px;text-align:center;&quot;&gt;&lt;b&gt;&lt;font style=&quot;font-size: 14px;&quot;&gt;CLIMA_SubCongestion&lt;/font&gt;&lt;/b&gt;&lt;/p&gt;&lt;hr size=&quot;1&quot; style=&quot;border-style:solid;&quot;&gt;&lt;p style=&quot;margin:0px;margin-left:4px;&quot;&gt;&lt;font style=&quot;font-size: 14px;&quot;&gt;+ High&lt;/font&gt;&lt;/p&gt;&lt;p style=&quot;margin:0px;margin-left:4px;&quot;&gt;&lt;font style=&quot;font-size: 14px;&quot;&gt;+ Low&lt;/font&gt;&lt;/p&gt;&lt;p style=&quot;margin:0px;margin-left:4px;&quot;&gt;&lt;span style=&quot;background-color: initial;&quot;&gt;&lt;font style=&quot;font-size: 14px;&quot;&gt;+ Mixed&lt;/font&gt;&lt;/span&gt;&lt;/p&gt;&lt;p style=&quot;margin:0px;margin-left:4px;&quot;&gt;&lt;font style=&quot;font-size: 14px;&quot;&gt;+ Unknown&lt;/font&gt;&lt;/p&gt;&lt;p style=&quot;margin:0px;margin-left:4px;&quot;&gt;&lt;br&gt;&lt;/p&gt;&lt;p style=&quot;margin:0px;margin-left:4px;&quot;&gt;&lt;br&gt;&lt;/p&gt;" style="verticalAlign=top;align=left;overflow=fill;html=1;whiteSpace=wrap;fillColor=#E6E6E6;" parent="WIyWlLk6GJQsqaUBKTNV-1" vertex="1">
          <mxGeometry x="493" y="720" width="210" height="130" as="geometry" />
        </mxCell>
        <mxCell id="8PfWSfrLphycb07iS4tt-27" value="&lt;p style=&quot;margin:0px;margin-top:4px;text-align:center;&quot;&gt;&lt;i style=&quot;background-color: initial;&quot;&gt;&lt;font style=&quot;font-size: 14px;&quot;&gt;&amp;lt;&amp;lt;Code List&amp;gt;&amp;gt;&lt;/font&gt;&lt;/i&gt;&lt;br&gt;&lt;/p&gt;&lt;p style=&quot;margin:0px;margin-top:4px;text-align:center;&quot;&gt;&lt;b&gt;&lt;font style=&quot;font-size: 14px;&quot;&gt;CLIMA_Geomechanics&lt;/font&gt;&lt;/b&gt;&lt;/p&gt;&lt;hr size=&quot;1&quot; style=&quot;border-style:solid;&quot;&gt;&lt;p style=&quot;margin:0px;margin-left:4px;&quot;&gt;&lt;font style=&quot;font-size: 14px;&quot;&gt;+ SuitableBuilding&lt;/font&gt;&lt;/p&gt;&lt;p style=&quot;margin:0px;margin-left:4px;&quot;&gt;&lt;font style=&quot;font-size: 14px;&quot;&gt;+ NotSuitableBuilding&lt;/font&gt;&lt;/p&gt;&lt;p style=&quot;margin:0px;margin-left:4px;&quot;&gt;&lt;span style=&quot;background-color: initial;&quot;&gt;&lt;font style=&quot;font-size: 14px;&quot;&gt;+ Mixed&lt;/font&gt;&lt;/span&gt;&lt;/p&gt;&lt;p style=&quot;margin:0px;margin-left:4px;&quot;&gt;&lt;font style=&quot;font-size: 14px;&quot;&gt;+ Unknown&lt;/font&gt;&lt;/p&gt;&lt;p style=&quot;margin:0px;margin-left:4px;&quot;&gt;&lt;br&gt;&lt;/p&gt;&lt;p style=&quot;margin:0px;margin-left:4px;&quot;&gt;&lt;br&gt;&lt;/p&gt;" style="verticalAlign=top;align=left;overflow=fill;html=1;whiteSpace=wrap;fillColor=#E6E6E6;" parent="WIyWlLk6GJQsqaUBKTNV-1" vertex="1">
          <mxGeometry x="493" y="1037.5" width="210" height="132.5" as="geometry" />
        </mxCell>
        <mxCell id="8PfWSfrLphycb07iS4tt-29" value="&lt;p style=&quot;margin:0px;margin-top:4px;text-align:center;&quot;&gt;&lt;i style=&quot;background-color: initial;&quot;&gt;&lt;font style=&quot;font-size: 14px;&quot;&gt;&amp;lt;&amp;lt;Code List&amp;gt;&amp;gt;&lt;/font&gt;&lt;/i&gt;&lt;br&gt;&lt;/p&gt;&lt;p style=&quot;margin:0px;margin-top:4px;text-align:center;&quot;&gt;&lt;b&gt;&lt;font style=&quot;font-size: 14px;&quot;&gt;CLIMA_subInfoReq&lt;/font&gt;&lt;/b&gt;&lt;/p&gt;&lt;hr size=&quot;1&quot; style=&quot;border-style:solid;&quot;&gt;&lt;p style=&quot;margin:0px;margin-left:4px;&quot;&gt;&lt;font style=&quot;font-size: 14px;&quot;&gt;+ &lt;font style=&quot;&quot;&gt;SoilType&lt;/font&gt;&lt;/font&gt;&lt;/p&gt;&lt;p style=&quot;margin:0px;margin-left:4px;&quot;&gt;&lt;font style=&quot;font-size: 14px;&quot;&gt;+ GroundWater&lt;/font&gt;&lt;/p&gt;&lt;p style=&quot;margin:0px;margin-left:4px;&quot;&gt;&lt;font style=&quot;font-size: 14px;&quot;&gt;+ SubCongestion&lt;/font&gt;&lt;/p&gt;&lt;p style=&quot;margin:0px;margin-left:4px;&quot;&gt;&lt;font style=&quot;font-size: 14px;&quot;&gt;+ Geomechanics&lt;/font&gt;&lt;/p&gt;&lt;p style=&quot;margin:0px;margin-left:4px;&quot;&gt;&lt;br&gt;&lt;/p&gt;&lt;p style=&quot;margin:0px;margin-left:4px;&quot;&gt;&lt;br&gt;&lt;/p&gt;" style="verticalAlign=top;align=left;overflow=fill;html=1;whiteSpace=wrap;fillColor=#E6E6E6;" parent="WIyWlLk6GJQsqaUBKTNV-1" vertex="1">
          <mxGeometry x="1795" y="870" width="210" height="130" as="geometry" />
        </mxCell>
        <mxCell id="8PfWSfrLphycb07iS4tt-30" value="&lt;div&gt;&lt;font style=&quot;font-size: 14px;&quot;&gt;Additional information regarding subsurface information/resolution requirements. Additional Information on the depth required underground.&lt;/font&gt;&lt;/div&gt;&lt;div&gt;&lt;font style=&quot;font-size: 14px;&quot;&gt;Additional information national and local guidelines&lt;/font&gt;&lt;/div&gt;" style="shape=callout;whiteSpace=wrap;html=1;perimeter=calloutPerimeter;position2=0.69;fillColor=#E6D0DE;" parent="WIyWlLk6GJQsqaUBKTNV-1" vertex="1">
          <mxGeometry x="1130" y="970" width="260" height="150" as="geometry" />
        </mxCell>
        <mxCell id="8PfWSfrLphycb07iS4tt-31" value="" style="shape=flexArrow;endArrow=classic;html=1;rounded=0;fillColor=#000000;" parent="WIyWlLk6GJQsqaUBKTNV-1" edge="1">
          <mxGeometry width="50" height="50" relative="1" as="geometry">
            <mxPoint x="-910" y="24.5" as="sourcePoint" />
            <mxPoint x="-790" y="24.5" as="targetPoint" />
          </mxGeometry>
        </mxCell>
        <mxCell id="8PfWSfrLphycb07iS4tt-32" value="Masterplan" style="rounded=0;whiteSpace=wrap;html=1;fillColor=#E6D0DE;" parent="WIyWlLk6GJQsqaUBKTNV-1" vertex="1">
          <mxGeometry x="3560" y="-520" width="320" height="160" as="geometry" />
        </mxCell>
        <mxCell id="8PfWSfrLphycb07iS4tt-33" value="Local Adaptation Plan 1" style="rounded=0;whiteSpace=wrap;html=1;fillColor=#FFCE9F;" parent="WIyWlLk6GJQsqaUBKTNV-1" vertex="1">
          <mxGeometry x="3560" y="-600" width="160" height="80" as="geometry" />
        </mxCell>
        <mxCell id="8PfWSfrLphycb07iS4tt-34" value="Local Adaptation Plan 2" style="rounded=0;whiteSpace=wrap;html=1;fillColor=#FFCE9F;" parent="WIyWlLk6GJQsqaUBKTNV-1" vertex="1">
          <mxGeometry x="3720" y="-600" width="160" height="80" as="geometry" />
        </mxCell>
        <mxCell id="8PfWSfrLphycb07iS4tt-35" value="Intervention 1" style="rounded=0;whiteSpace=wrap;html=1;fillColor=#FFF4C3;" parent="WIyWlLk6GJQsqaUBKTNV-1" vertex="1">
          <mxGeometry x="3560" y="-640" width="80" height="40" as="geometry" />
        </mxCell>
        <mxCell id="8PfWSfrLphycb07iS4tt-36" value="Intervention 2" style="rounded=0;whiteSpace=wrap;html=1;fillColor=#FFF4C3;" parent="WIyWlLk6GJQsqaUBKTNV-1" vertex="1">
          <mxGeometry x="3640" y="-640" width="80" height="40" as="geometry" />
        </mxCell>
        <mxCell id="8PfWSfrLphycb07iS4tt-37" value="Intervention 3" style="rounded=0;whiteSpace=wrap;html=1;fillColor=#FFF4C3;" parent="WIyWlLk6GJQsqaUBKTNV-1" vertex="1">
          <mxGeometry x="3720" y="-640" width="80" height="40" as="geometry" />
        </mxCell>
        <mxCell id="8PfWSfrLphycb07iS4tt-38" value="Intervention 4" style="rounded=0;whiteSpace=wrap;html=1;fillColor=#FFF4C3;" parent="WIyWlLk6GJQsqaUBKTNV-1" vertex="1">
          <mxGeometry x="3800" y="-640" width="80" height="40" as="geometry" />
        </mxCell>
        <mxCell id="8PfWSfrLphycb07iS4tt-39" value="" style="shape=flexArrow;endArrow=classic;html=1;rounded=0;fillColor=#000000;" parent="WIyWlLk6GJQsqaUBKTNV-1" edge="1">
          <mxGeometry width="50" height="50" relative="1" as="geometry">
            <mxPoint x="3400" y="-510" as="sourcePoint" />
            <mxPoint x="3520" y="-510" as="targetPoint" />
          </mxGeometry>
        </mxCell>
        <mxCell id="8PfWSfrLphycb07iS4tt-40" value="&lt;b&gt;In the same way that in LADM A SP_PlanBlock follows the hierarchy of a PlanGroup and is composed of SP_PlanUnits, in climate adaptatiion design a local adaptation plan is composed of several adaptation interventions and &quot;follows&quot; a main masterplan&lt;/b&gt;" style="shape=callout;whiteSpace=wrap;html=1;perimeter=calloutPerimeter;" parent="WIyWlLk6GJQsqaUBKTNV-1" vertex="1">
          <mxGeometry x="-790" y="-510" width="290" height="180" as="geometry" />
        </mxCell>
        <mxCell id="8PfWSfrLphycb07iS4tt-41" value="&lt;h1 style=&quot;margin-top: 0px;&quot;&gt;&lt;span style=&quot;background-color: initial;&quot;&gt;&lt;font style=&quot;font-size: 72px;&quot;&gt;LADM Part 5&lt;/font&gt;&lt;/span&gt;&lt;/h1&gt;&lt;h1 style=&quot;margin-top: 0px;&quot;&gt;&lt;br&gt;&lt;/h1&gt;" style="text;html=1;whiteSpace=wrap;overflow=hidden;rounded=0;" parent="WIyWlLk6GJQsqaUBKTNV-1" vertex="1">
          <mxGeometry x="1310" y="-2250" width="580" height="110" as="geometry" />
        </mxCell>
        <mxCell id="8PfWSfrLphycb07iS4tt-42" value="&lt;h1 style=&quot;margin-top: 0px;&quot;&gt;&lt;span style=&quot;background-color: initial;&quot;&gt;&lt;font style=&quot;font-size: 72px;&quot;&gt;Adaptation LADM Part 5 to Climate Adaptation Design&lt;/font&gt;&lt;/span&gt;&lt;/h1&gt;&lt;h1 style=&quot;margin-top: 0px;&quot;&gt;&lt;br&gt;&lt;/h1&gt;" style="text;html=1;whiteSpace=wrap;overflow=hidden;rounded=0;" parent="WIyWlLk6GJQsqaUBKTNV-1" vertex="1">
          <mxGeometry x="433" y="-390" width="2270" height="390" as="geometry" />
        </mxCell>
        <mxCell id="8PfWSfrLphycb07iS4tt-43" value="Infiltration Crates" style="swimlane;fontStyle=0;childLayout=stackLayout;horizontal=1;startSize=26;fillColor=#FFCE9F;horizontalStack=0;resizeParent=1;resizeParentMax=0;resizeLast=0;collapsible=1;marginBottom=0;whiteSpace=wrap;html=1;" parent="WIyWlLk6GJQsqaUBKTNV-1" vertex="1">
          <mxGeometry x="3770" y="630" width="400" height="490" as="geometry">
            <mxRectangle x="1810" y="-860" width="100" height="30" as="alternateBounds" />
          </mxGeometry>
        </mxCell>
        <mxCell id="8PfWSfrLphycb07iS4tt-44" value="+ puID: InfiltrationCrates" style="text;strokeColor=none;fillColor=none;align=left;verticalAlign=top;spacingLeft=4;spacingRight=4;overflow=hidden;rotatable=0;points=[[0,0.5],[1,0.5]];portConstraint=eastwest;whiteSpace=wrap;html=1;" parent="8PfWSfrLphycb07iS4tt-43" vertex="1">
          <mxGeometry y="26" width="400" height="26" as="geometry" />
        </mxCell>
        <mxCell id="8PfWSfrLphycb07iS4tt-45" value="+ subFunctionName: under playground" style="text;strokeColor=none;fillColor=none;align=left;verticalAlign=top;spacingLeft=4;spacingRight=4;overflow=hidden;rotatable=0;points=[[0,0.5],[1,0.5]];portConstraint=eastwest;whiteSpace=wrap;html=1;" parent="8PfWSfrLphycb07iS4tt-43" vertex="1">
          <mxGeometry y="52" width="400" height="26" as="geometry" />
        </mxCell>
        <mxCell id="8PfWSfrLphycb07iS4tt-46" value="+ subFunctionType: education&lt;div&gt;&lt;br&gt;&lt;/div&gt;&lt;div&gt;&lt;b&gt;+&amp;nbsp;maxVolumeIndications:&amp;nbsp;190&lt;/b&gt;&lt;/div&gt;&lt;div&gt;&lt;b&gt;&lt;br&gt;&lt;/b&gt;&lt;/div&gt;&lt;div&gt;&lt;b&gt;+&amp;nbsp;maxAreaIndications:&amp;nbsp;159&lt;/b&gt;&lt;/div&gt;&lt;div&gt;&lt;b&gt;&lt;br&gt;&lt;/b&gt;&lt;/div&gt;&lt;div&gt;&lt;b&gt;+&amp;nbsp;maxHeightIndications: 1&lt;/b&gt;&lt;/div&gt;&lt;div&gt;&lt;br&gt;&lt;/div&gt;&lt;div&gt;&lt;b&gt;+&amp;nbsp;surfaceRelation:&amp;nbsp;Bellow&lt;/b&gt;&lt;/div&gt;&lt;div&gt;&lt;br&gt;&lt;/div&gt;&lt;div&gt;+&amp;nbsp;currentArea:&amp;nbsp;159&lt;/div&gt;&lt;div&gt;&lt;br&gt;&lt;/div&gt;&lt;div&gt;+&amp;nbsp;currentVolume:&amp;nbsp;0&lt;/div&gt;&lt;div&gt;&lt;br&gt;&lt;/div&gt;&lt;div&gt;+&amp;nbsp;statusType:&amp;nbsp;inUse&lt;/div&gt;&lt;div&gt;&lt;br&gt;&lt;/div&gt;&lt;div&gt;&lt;b&gt;&lt;u&gt;+ subInfoRequirements: GroundWater, SoilType, SubCongestion&lt;/u&gt;&lt;/b&gt;&lt;/div&gt;&lt;div&gt;&lt;b&gt;&lt;u&gt;&lt;br&gt;&lt;/u&gt;&lt;/b&gt;&lt;/div&gt;&lt;div&gt;&lt;b&gt;&lt;u&gt;+ depthUndergroundMm: 1000&lt;/u&gt;&lt;/b&gt;&lt;/div&gt;&lt;div&gt;&lt;b&gt;&lt;u&gt;&lt;br&gt;&lt;/u&gt;&lt;/b&gt;&lt;/div&gt;&lt;div&gt;&lt;b&gt;&lt;u&gt;+ resolutionRequirement: 0.5x0.5x0.5&lt;/u&gt;&lt;/b&gt;&lt;/div&gt;&lt;div&gt;&lt;b&gt;&lt;u&gt;&lt;span style=&quot;background-color: initial;&quot;&gt;&lt;br&gt;&lt;/span&gt;&lt;/u&gt;&lt;/b&gt;&lt;/div&gt;&lt;div&gt;&lt;b&gt;&lt;u&gt;&lt;span style=&quot;background-color: initial;&quot;&gt;+ nationalGuideline:&amp;nbsp;&lt;/span&gt;&lt;/u&gt;&lt;/b&gt;&lt;b style=&quot;background-color: initial;&quot;&gt;&lt;u&gt;&lt;span style=&quot;background-color: initial;&quot;&gt;Maatlat&lt;/span&gt;&lt;/u&gt;&lt;/b&gt;&lt;/div&gt;&lt;div&gt;&lt;b style=&quot;background-color: initial;&quot;&gt;&lt;u&gt;&lt;span style=&quot;background-color: initial;&quot;&gt;&lt;br&gt;&lt;/span&gt;&lt;/u&gt;&lt;/b&gt;&lt;/div&gt;&lt;div&gt;&lt;b style=&quot;background-color: initial;&quot;&gt;&lt;u&gt;&lt;span style=&quot;background-color: initial;&quot;&gt;+ localGuideline:&amp;nbsp;&lt;/span&gt;&lt;/u&gt;&lt;/b&gt;&lt;span style=&quot;background-color: initial;&quot;&gt;&lt;b&gt;&lt;u&gt;N1, N2, N3, D1, D2&lt;/u&gt;&lt;/b&gt;&lt;/span&gt;&lt;/div&gt;&lt;div&gt;&lt;span style=&quot;background-color: initial;&quot;&gt;&lt;br&gt;&lt;/span&gt;&lt;/div&gt;&lt;div&gt;&lt;span style=&quot;background-color: initial;&quot;&gt;&lt;br&gt;&lt;/span&gt;&lt;/div&gt;&lt;div&gt;&lt;br&gt;&lt;/div&gt;&lt;div&gt;&lt;br&gt;&lt;/div&gt;&lt;div&gt;&lt;br&gt;&lt;/div&gt;" style="text;strokeColor=none;fillColor=none;align=left;verticalAlign=top;spacingLeft=4;spacingRight=4;overflow=hidden;rotatable=0;points=[[0,0.5],[1,0.5]];portConstraint=eastwest;whiteSpace=wrap;html=1;" parent="8PfWSfrLphycb07iS4tt-43" vertex="1">
          <mxGeometry y="78" width="400" height="412" as="geometry" />
        </mxCell>
        <mxCell id="8PfWSfrLphycb07iS4tt-48" value="Voordorp Adaptation Plan" style="swimlane;fontStyle=0;childLayout=stackLayout;horizontal=1;startSize=26;fillColor=#FFCE9F;horizontalStack=0;resizeParent=1;resizeParentMax=0;resizeLast=0;collapsible=1;marginBottom=0;whiteSpace=wrap;html=1;" parent="WIyWlLk6GJQsqaUBKTNV-1" vertex="1">
          <mxGeometry x="3153" y="1130" width="330" height="290" as="geometry">
            <mxRectangle x="1810" y="-860" width="100" height="30" as="alternateBounds" />
          </mxGeometry>
        </mxCell>
        <mxCell id="8PfWSfrLphycb07iS4tt-49" value="&lt;i&gt;+ pbID: UVoord001&lt;/i&gt;" style="text;strokeColor=none;fillColor=none;align=left;verticalAlign=top;spacingLeft=4;spacingRight=4;overflow=hidden;rotatable=0;points=[[0,0.5],[1,0.5]];portConstraint=eastwest;whiteSpace=wrap;html=1;" parent="8PfWSfrLphycb07iS4tt-48" vertex="1">
          <mxGeometry y="26" width="330" height="26" as="geometry" />
        </mxCell>
        <mxCell id="8PfWSfrLphycb07iS4tt-50" value="&lt;i&gt;+ blockName: VoordorpPlan001&lt;/i&gt;" style="text;strokeColor=none;fillColor=none;align=left;verticalAlign=top;spacingLeft=4;spacingRight=4;overflow=hidden;rotatable=0;points=[[0,0.5],[1,0.5]];portConstraint=eastwest;whiteSpace=wrap;html=1;" parent="8PfWSfrLphycb07iS4tt-48" vertex="1">
          <mxGeometry y="52" width="330" height="26" as="geometry" />
        </mxCell>
        <mxCell id="8PfWSfrLphycb07iS4tt-51" value="&lt;i&gt;+ functionType:&amp;nbsp;&lt;/i&gt;&lt;span style=&quot;background-color: initial;&quot;&gt;&lt;i&gt;cultivationPublicFac&lt;/i&gt;&lt;/span&gt;&lt;i style=&quot;background-color: initial;&quot;&gt;ility&lt;/i&gt;&lt;div&gt;&lt;div&gt;&lt;i&gt;&lt;br&gt;&lt;/i&gt;&lt;/div&gt;&lt;div&gt;&lt;i&gt;+&amp;nbsp;naturalRiskSafetyArea:&amp;nbsp;&lt;/i&gt;&lt;span style=&quot;background-color: initial;&quot;&gt;&lt;i&gt;stormRiskZone&lt;/i&gt;&lt;/span&gt;&lt;/div&gt;&lt;div&gt;&lt;br&gt;&lt;/div&gt;&lt;div&gt;&lt;div&gt;&lt;b&gt;&lt;u&gt;&amp;nbsp;+ climateTheme: Waterlogging, Heat&lt;/u&gt;&lt;/b&gt;&lt;/div&gt;&lt;div&gt;&lt;u&gt;&lt;br&gt;&lt;/u&gt;&lt;/div&gt;&lt;div&gt;&lt;b&gt;&lt;u&gt;&amp;nbsp;+ soilType: Sand&lt;/u&gt;&lt;/b&gt;&lt;/div&gt;&lt;div&gt;&lt;b&gt;&lt;u&gt;&lt;br&gt;&lt;/u&gt;&lt;/b&gt;&lt;/div&gt;&lt;div&gt;&lt;b&gt;&lt;u&gt;&amp;nbsp;+ subsurfaceCongestion: Low&lt;/u&gt;&lt;/b&gt;&lt;/div&gt;&lt;div&gt;&lt;b&gt;&lt;u&gt;&lt;br&gt;&lt;/u&gt;&lt;/b&gt;&lt;/div&gt;&lt;div&gt;&lt;b&gt;&lt;u&gt;&amp;nbsp;+ groundWaterLevel: Above1m&lt;/u&gt;&lt;/b&gt;&lt;/div&gt;&lt;div&gt;&lt;b&gt;&lt;u&gt;&lt;br&gt;&lt;/u&gt;&lt;/b&gt;&lt;/div&gt;&lt;div&gt;&lt;b&gt;&lt;u&gt;&amp;nbsp;+ geomechanics: SuitableBuilding&lt;/u&gt;&lt;/b&gt;&lt;/div&gt;&lt;/div&gt;&lt;div&gt;&lt;br&gt;&lt;/div&gt;&lt;div&gt;&lt;br&gt;&lt;/div&gt;&lt;/div&gt;" style="text;strokeColor=none;fillColor=none;align=left;verticalAlign=top;spacingLeft=4;spacingRight=4;overflow=hidden;rotatable=0;points=[[0,0.5],[1,0.5]];portConstraint=eastwest;whiteSpace=wrap;html=1;" parent="8PfWSfrLphycb07iS4tt-48" vertex="1">
          <mxGeometry y="78" width="330" height="212" as="geometry" />
        </mxCell>
        <mxCell id="8PfWSfrLphycb07iS4tt-52" value="" style="endArrow=diamondThin;endFill=0;endSize=24;html=1;rounded=0;exitX=0.003;exitY=0.317;exitDx=0;exitDy=0;entryX=1;entryY=0.5;entryDx=0;entryDy=0;exitPerimeter=0;edgeStyle=orthogonalEdgeStyle;" parent="WIyWlLk6GJQsqaUBKTNV-1" source="8PfWSfrLphycb07iS4tt-46" target="8PfWSfrLphycb07iS4tt-51" edge="1">
          <mxGeometry width="160" relative="1" as="geometry">
            <mxPoint x="3500" y="1590" as="sourcePoint" />
            <mxPoint x="3318" y="1450" as="targetPoint" />
          </mxGeometry>
        </mxCell>
        <mxCell id="8PfWSfrLphycb07iS4tt-53" value="Utrecht 2040" style="swimlane;fontStyle=0;childLayout=stackLayout;horizontal=1;startSize=26;fillColor=#FFCE9F;horizontalStack=0;resizeParent=1;resizeParentMax=0;resizeLast=0;collapsible=1;marginBottom=0;whiteSpace=wrap;html=1;" parent="WIyWlLk6GJQsqaUBKTNV-1" vertex="1">
          <mxGeometry x="3153" y="780" width="330" height="200" as="geometry">
            <mxRectangle x="1810" y="-860" width="100" height="30" as="alternateBounds" />
          </mxGeometry>
        </mxCell>
        <mxCell id="8PfWSfrLphycb07iS4tt-54" value="&lt;i&gt;+ pgID: MU2040&lt;/i&gt;" style="text;strokeColor=none;fillColor=none;align=left;verticalAlign=top;spacingLeft=4;spacingRight=4;overflow=hidden;rotatable=0;points=[[0,0.5],[1,0.5]];portConstraint=eastwest;whiteSpace=wrap;html=1;" parent="8PfWSfrLphycb07iS4tt-53" vertex="1">
          <mxGeometry y="26" width="330" height="26" as="geometry" />
        </mxCell>
        <mxCell id="8PfWSfrLphycb07iS4tt-55" value="&lt;i&gt;+ hierarchyLevel: 1&lt;/i&gt;" style="text;strokeColor=none;fillColor=none;align=left;verticalAlign=top;spacingLeft=4;spacingRight=4;overflow=hidden;rotatable=0;points=[[0,0.5],[1,0.5]];portConstraint=eastwest;whiteSpace=wrap;html=1;" parent="8PfWSfrLphycb07iS4tt-53" vertex="1">
          <mxGeometry y="52" width="330" height="26" as="geometry" />
        </mxCell>
        <mxCell id="8PfWSfrLphycb07iS4tt-56" value="&lt;i&gt;+ label: Utrecht2040&lt;/i&gt;&lt;div&gt;&lt;i&gt;&lt;br&gt;&lt;/i&gt;&lt;/div&gt;&lt;div&gt;&lt;i&gt;+ referencePoint:&amp;nbsp;Point&lt;/i&gt;&lt;/div&gt;&lt;div&gt;&lt;br&gt;&lt;/div&gt;&lt;div&gt;&lt;b&gt;&lt;u&gt;+ responsible: Municiaplity Of Utrecht&lt;/u&gt;&lt;/b&gt;&lt;/div&gt;&lt;div&gt;&lt;b&gt;&lt;u&gt;&lt;br&gt;&lt;/u&gt;&lt;/b&gt;&lt;/div&gt;&lt;div&gt;&lt;b&gt;&lt;u&gt;+ source: CharacterString&lt;/u&gt;&lt;/b&gt;&lt;br&gt;&lt;div&gt;&lt;br&gt;&lt;/div&gt;&lt;div&gt;&lt;br&gt;&lt;/div&gt;&lt;/div&gt;" style="text;strokeColor=none;fillColor=none;align=left;verticalAlign=top;spacingLeft=4;spacingRight=4;overflow=hidden;rotatable=0;points=[[0,0.5],[1,0.5]];portConstraint=eastwest;whiteSpace=wrap;html=1;" parent="8PfWSfrLphycb07iS4tt-53" vertex="1">
          <mxGeometry y="78" width="330" height="122" as="geometry" />
        </mxCell>
        <mxCell id="8PfWSfrLphycb07iS4tt-58" value="" style="endArrow=diamondThin;endFill=0;endSize=24;html=1;rounded=0;exitX=0.48;exitY=0.003;exitDx=0;exitDy=0;exitPerimeter=0;" parent="WIyWlLk6GJQsqaUBKTNV-1" source="8PfWSfrLphycb07iS4tt-48" edge="1">
          <mxGeometry width="160" relative="1" as="geometry">
            <mxPoint x="3310" y="1130" as="sourcePoint" />
            <mxPoint x="3310" y="980" as="targetPoint" />
          </mxGeometry>
        </mxCell>
        <mxCell id="8PfWSfrLphycb07iS4tt-59" value="SP_Permit" style="swimlane;fontStyle=0;childLayout=stackLayout;horizontal=1;startSize=26;fillColor=#FFF4C3;horizontalStack=0;resizeParent=1;resizeParentMax=0;resizeLast=0;collapsible=1;marginBottom=0;whiteSpace=wrap;html=1;" parent="WIyWlLk6GJQsqaUBKTNV-1" vertex="1" collapsed="1">
          <mxGeometry x="4210" y="899" width="100" height="30" as="geometry">
            <mxRectangle x="4160" y="760" width="330" height="230" as="alternateBounds" />
          </mxGeometry>
        </mxCell>
        <mxCell id="8PfWSfrLphycb07iS4tt-60" value="+ pID: MUVoord001" style="text;strokeColor=none;fillColor=none;align=left;verticalAlign=top;spacingLeft=4;spacingRight=4;overflow=hidden;rotatable=0;points=[[0,0.5],[1,0.5]];portConstraint=eastwest;whiteSpace=wrap;html=1;" parent="8PfWSfrLphycb07iS4tt-59" vertex="1">
          <mxGeometry y="26" width="330" height="26" as="geometry" />
        </mxCell>
        <mxCell id="8PfWSfrLphycb07iS4tt-61" value="+ typeOfPermit:&amp;nbsp;SP_PermitType" style="text;strokeColor=none;fillColor=none;align=left;verticalAlign=top;spacingLeft=4;spacingRight=4;overflow=hidden;rotatable=0;points=[[0,0.5],[1,0.5]];portConstraint=eastwest;whiteSpace=wrap;html=1;" parent="8PfWSfrLphycb07iS4tt-59" vertex="1">
          <mxGeometry y="52" width="330" height="26" as="geometry" />
        </mxCell>
        <mxCell id="8PfWSfrLphycb07iS4tt-62" value="+ name: CharacterString&lt;div&gt;&lt;br&gt;&lt;div&gt;+ description:&amp;nbsp;CharacterString&lt;/div&gt;&lt;div&gt;&lt;br&gt;&lt;div&gt;+&amp;nbsp;decisionDate:&amp;nbsp;DateTime&lt;/div&gt;&lt;div&gt;&lt;br&gt;&lt;/div&gt;&lt;div&gt;+&amp;nbsp;duration:&amp;nbsp;CharacterString&lt;/div&gt;&lt;div&gt;&lt;br&gt;&lt;/div&gt;&lt;div&gt;+&amp;nbsp;period:&amp;nbsp;CharacterString&lt;/div&gt;&lt;div&gt;&lt;br&gt;&lt;/div&gt;&lt;div&gt;&lt;br&gt;&lt;/div&gt;&lt;/div&gt;&lt;/div&gt;" style="text;strokeColor=none;fillColor=none;align=left;verticalAlign=top;spacingLeft=4;spacingRight=4;overflow=hidden;rotatable=0;points=[[0,0.5],[1,0.5]];portConstraint=eastwest;whiteSpace=wrap;html=1;" parent="8PfWSfrLphycb07iS4tt-59" vertex="1">
          <mxGeometry y="78" width="330" height="152" as="geometry" />
        </mxCell>
        <mxCell id="8PfWSfrLphycb07iS4tt-74" value="Tree Planting" style="swimlane;fontStyle=0;childLayout=stackLayout;horizontal=1;startSize=26;fillColor=#FFCE9F;horizontalStack=0;resizeParent=1;resizeParentMax=0;resizeLast=0;collapsible=1;marginBottom=0;whiteSpace=wrap;html=1;" parent="WIyWlLk6GJQsqaUBKTNV-1" vertex="1">
          <mxGeometry x="3770" y="1140" width="400" height="490" as="geometry">
            <mxRectangle x="1810" y="-860" width="100" height="30" as="alternateBounds" />
          </mxGeometry>
        </mxCell>
        <mxCell id="8PfWSfrLphycb07iS4tt-75" value="+ puID: TreePlanting" style="text;strokeColor=none;fillColor=none;align=left;verticalAlign=top;spacingLeft=4;spacingRight=4;overflow=hidden;rotatable=0;points=[[0,0.5],[1,0.5]];portConstraint=eastwest;whiteSpace=wrap;html=1;" parent="8PfWSfrLphycb07iS4tt-74" vertex="1">
          <mxGeometry y="26" width="400" height="26" as="geometry" />
        </mxCell>
        <mxCell id="8PfWSfrLphycb07iS4tt-76" value="+ subFunctionName: tree playground" style="text;strokeColor=none;fillColor=none;align=left;verticalAlign=top;spacingLeft=4;spacingRight=4;overflow=hidden;rotatable=0;points=[[0,0.5],[1,0.5]];portConstraint=eastwest;whiteSpace=wrap;html=1;" parent="8PfWSfrLphycb07iS4tt-74" vertex="1">
          <mxGeometry y="52" width="400" height="26" as="geometry" />
        </mxCell>
        <mxCell id="8PfWSfrLphycb07iS4tt-77" value="+ subFunctionType: education&lt;div&gt;&lt;br&gt;&lt;/div&gt;&lt;div&gt;&lt;b&gt;+&amp;nbsp;maxVolumeIndications:&amp;nbsp;1&lt;/b&gt;&lt;/div&gt;&lt;div&gt;&lt;b&gt;&lt;br&gt;&lt;/b&gt;&lt;/div&gt;&lt;div&gt;&lt;b&gt;+&amp;nbsp;maxAreaIndications: 1&lt;/b&gt;&lt;/div&gt;&lt;div&gt;&lt;b&gt;&lt;br&gt;&lt;/b&gt;&lt;/div&gt;&lt;div&gt;&lt;b&gt;+&amp;nbsp;maxHeightIndications: 10&lt;/b&gt;&lt;/div&gt;&lt;div&gt;&lt;br&gt;&lt;/div&gt;&lt;div&gt;&lt;b&gt;+&amp;nbsp;surfaceRelation:&amp;nbsp;Mixed&lt;/b&gt;&lt;/div&gt;&lt;div&gt;&lt;br&gt;&lt;/div&gt;&lt;div&gt;+&amp;nbsp;currentArea:&amp;nbsp;0&lt;/div&gt;&lt;div&gt;&lt;br&gt;&lt;/div&gt;&lt;div&gt;+&amp;nbsp;currentVolume:&amp;nbsp;0&lt;/div&gt;&lt;div&gt;&lt;br&gt;&lt;/div&gt;&lt;div&gt;+&amp;nbsp;statusType:&amp;nbsp;inUse&lt;/div&gt;&lt;div&gt;&lt;br&gt;&lt;/div&gt;&lt;div&gt;&lt;b&gt;&lt;u&gt;+ subInfoRequirements:Geomechanics, SoilType, SubCongestion&lt;/u&gt;&lt;/b&gt;&lt;/div&gt;&lt;div&gt;&lt;b&gt;&lt;u&gt;&lt;br&gt;&lt;/u&gt;&lt;/b&gt;&lt;/div&gt;&lt;div&gt;&lt;b&gt;&lt;u&gt;+ depthUndergroundMm:&amp;nbsp;&lt;/u&gt;&lt;/b&gt;&lt;span style=&quot;background-color: initial;&quot;&gt;&lt;b&gt;&lt;u&gt;1500&lt;/u&gt;&lt;/b&gt;&lt;/span&gt;&lt;/div&gt;&lt;div&gt;&lt;b&gt;&lt;u&gt;&lt;br&gt;&lt;/u&gt;&lt;/b&gt;&lt;/div&gt;&lt;div&gt;&lt;b&gt;&lt;u&gt;+ resolutionRequirement: 0.5x0.5x0.5&lt;/u&gt;&lt;/b&gt;&lt;/div&gt;&lt;div&gt;&lt;b&gt;&lt;u&gt;&lt;span style=&quot;background-color: initial;&quot;&gt;&lt;br&gt;&lt;/span&gt;&lt;/u&gt;&lt;/b&gt;&lt;/div&gt;&lt;div&gt;&lt;b&gt;&lt;u&gt;&lt;span style=&quot;background-color: initial;&quot;&gt;+ nationalGuideline:&amp;nbsp;&lt;/span&gt;&lt;/u&gt;&lt;/b&gt;&lt;b style=&quot;background-color: initial;&quot;&gt;&lt;u&gt;&lt;span style=&quot;background-color: initial;&quot;&gt;Maatlat&lt;/span&gt;&lt;/u&gt;&lt;/b&gt;&lt;/div&gt;&lt;div&gt;&lt;b style=&quot;background-color: initial;&quot;&gt;&lt;u&gt;&lt;span style=&quot;background-color: initial;&quot;&gt;&lt;br&gt;&lt;/span&gt;&lt;/u&gt;&lt;/b&gt;&lt;/div&gt;&lt;div&gt;&lt;b style=&quot;background-color: initial;&quot;&gt;&lt;u&gt;&lt;span style=&quot;background-color: initial;&quot;&gt;+ localGuideline:&amp;nbsp;&lt;/span&gt;&lt;/u&gt;&lt;/b&gt;&lt;span style=&quot;background-color: initial;&quot;&gt;&lt;b&gt;&lt;u&gt;B1, B2, B3, H1, H2&lt;/u&gt;&lt;/b&gt;&lt;/span&gt;&lt;/div&gt;&lt;div&gt;&lt;span style=&quot;background-color: initial;&quot;&gt;&lt;br&gt;&lt;/span&gt;&lt;/div&gt;&lt;div&gt;&lt;span style=&quot;background-color: initial;&quot;&gt;&lt;br&gt;&lt;/span&gt;&lt;/div&gt;&lt;div&gt;&lt;br&gt;&lt;/div&gt;&lt;div&gt;&lt;br&gt;&lt;/div&gt;&lt;div&gt;&lt;br&gt;&lt;/div&gt;" style="text;strokeColor=none;fillColor=none;align=left;verticalAlign=top;spacingLeft=4;spacingRight=4;overflow=hidden;rotatable=0;points=[[0,0.5],[1,0.5]];portConstraint=eastwest;whiteSpace=wrap;html=1;" parent="8PfWSfrLphycb07iS4tt-74" vertex="1">
          <mxGeometry y="78" width="400" height="412" as="geometry" />
        </mxCell>
        <mxCell id="8PfWSfrLphycb07iS4tt-78" value="Natural Playground" style="swimlane;fontStyle=0;childLayout=stackLayout;horizontal=1;startSize=26;fillColor=#FFCE9F;horizontalStack=0;resizeParent=1;resizeParentMax=0;resizeLast=0;collapsible=1;marginBottom=0;whiteSpace=wrap;html=1;" parent="WIyWlLk6GJQsqaUBKTNV-1" vertex="1">
          <mxGeometry x="3770" y="1660" width="400" height="490" as="geometry">
            <mxRectangle x="1810" y="-860" width="100" height="30" as="alternateBounds" />
          </mxGeometry>
        </mxCell>
        <mxCell id="8PfWSfrLphycb07iS4tt-79" value="+ puID: NaturalPlayground" style="text;strokeColor=none;fillColor=none;align=left;verticalAlign=top;spacingLeft=4;spacingRight=4;overflow=hidden;rotatable=0;points=[[0,0.5],[1,0.5]];portConstraint=eastwest;whiteSpace=wrap;html=1;" parent="8PfWSfrLphycb07iS4tt-78" vertex="1">
          <mxGeometry y="26" width="400" height="26" as="geometry" />
        </mxCell>
        <mxCell id="8PfWSfrLphycb07iS4tt-80" value="+ subFunctionName: natural playground" style="text;strokeColor=none;fillColor=none;align=left;verticalAlign=top;spacingLeft=4;spacingRight=4;overflow=hidden;rotatable=0;points=[[0,0.5],[1,0.5]];portConstraint=eastwest;whiteSpace=wrap;html=1;" parent="8PfWSfrLphycb07iS4tt-78" vertex="1">
          <mxGeometry y="52" width="400" height="26" as="geometry" />
        </mxCell>
        <mxCell id="8PfWSfrLphycb07iS4tt-81" value="+ subFunctionType: education&lt;div&gt;&lt;br&gt;&lt;/div&gt;&lt;div&gt;&lt;b&gt;+&amp;nbsp;maxVolumeIndications:&amp;nbsp;250&lt;/b&gt;&lt;/div&gt;&lt;div&gt;&lt;b&gt;&lt;br&gt;&lt;/b&gt;&lt;/div&gt;&lt;div&gt;&lt;b&gt;+&amp;nbsp;maxAreaIndications:&amp;nbsp;120&lt;/b&gt;&lt;/div&gt;&lt;div&gt;&lt;b&gt;&lt;br&gt;&lt;/b&gt;&lt;/div&gt;&lt;div&gt;&lt;b&gt;+&amp;nbsp;maxHeightIndications: 3&lt;/b&gt;&lt;/div&gt;&lt;div&gt;&lt;br&gt;&lt;/div&gt;&lt;div&gt;&lt;b&gt;+&amp;nbsp;surfaceRelation:&amp;nbsp;Mixed&lt;/b&gt;&lt;/div&gt;&lt;div&gt;&lt;br&gt;&lt;/div&gt;&lt;div&gt;+&amp;nbsp;currentArea:&amp;nbsp;120&lt;/div&gt;&lt;div&gt;&lt;br&gt;&lt;/div&gt;&lt;div&gt;+&amp;nbsp;currentVolume: 232&lt;/div&gt;&lt;div&gt;&lt;br&gt;&lt;/div&gt;&lt;div&gt;+&amp;nbsp;statusType:&amp;nbsp;inUse&lt;/div&gt;&lt;div&gt;&lt;br&gt;&lt;/div&gt;&lt;div&gt;&lt;b&gt;&lt;u&gt;+ subInfoRequirements: SoilType, SubCongestion&lt;/u&gt;&lt;/b&gt;&lt;/div&gt;&lt;div&gt;&lt;b&gt;&lt;u&gt;&lt;br&gt;&lt;/u&gt;&lt;/b&gt;&lt;/div&gt;&lt;div&gt;&lt;b&gt;&lt;u&gt;+ depthUndergroundMm: 500&lt;/u&gt;&lt;/b&gt;&lt;/div&gt;&lt;div&gt;&lt;b&gt;&lt;u&gt;&lt;br&gt;&lt;/u&gt;&lt;/b&gt;&lt;/div&gt;&lt;div&gt;&lt;b&gt;&lt;u&gt;+ resolutionRequirement: 0.5x0.5x0.5&lt;/u&gt;&lt;/b&gt;&lt;/div&gt;&lt;div&gt;&lt;b&gt;&lt;u&gt;&lt;span style=&quot;background-color: initial;&quot;&gt;&lt;br&gt;&lt;/span&gt;&lt;/u&gt;&lt;/b&gt;&lt;/div&gt;&lt;div&gt;&lt;b&gt;&lt;u&gt;&lt;span style=&quot;background-color: initial;&quot;&gt;+ nationalGuideline:&amp;nbsp;&lt;/span&gt;&lt;/u&gt;&lt;/b&gt;&lt;b style=&quot;background-color: initial;&quot;&gt;&lt;u&gt;&lt;span style=&quot;background-color: initial;&quot;&gt;Maatlat&lt;/span&gt;&lt;/u&gt;&lt;/b&gt;&lt;/div&gt;&lt;div&gt;&lt;b style=&quot;background-color: initial;&quot;&gt;&lt;u&gt;&lt;span style=&quot;background-color: initial;&quot;&gt;&lt;br&gt;&lt;/span&gt;&lt;/u&gt;&lt;/b&gt;&lt;/div&gt;&lt;div&gt;&lt;b style=&quot;background-color: initial;&quot;&gt;&lt;u&gt;&lt;span style=&quot;background-color: initial;&quot;&gt;+ localGuideline:&amp;nbsp;&lt;/span&gt;&lt;/u&gt;&lt;/b&gt;&lt;span style=&quot;background-color: initial;&quot;&gt;&lt;b&gt;&lt;u&gt;B1, B2, B3, N1, D1&lt;/u&gt;&lt;/b&gt;&lt;/span&gt;&lt;/div&gt;&lt;div&gt;&lt;span style=&quot;background-color: initial;&quot;&gt;&lt;br&gt;&lt;/span&gt;&lt;/div&gt;&lt;div&gt;&lt;span style=&quot;background-color: initial;&quot;&gt;&lt;br&gt;&lt;/span&gt;&lt;/div&gt;&lt;div&gt;&lt;br&gt;&lt;/div&gt;&lt;div&gt;&lt;br&gt;&lt;/div&gt;&lt;div&gt;&lt;br&gt;&lt;/div&gt;" style="text;strokeColor=none;fillColor=none;align=left;verticalAlign=top;spacingLeft=4;spacingRight=4;overflow=hidden;rotatable=0;points=[[0,0.5],[1,0.5]];portConstraint=eastwest;whiteSpace=wrap;html=1;" parent="8PfWSfrLphycb07iS4tt-78" vertex="1">
          <mxGeometry y="78" width="400" height="412" as="geometry" />
        </mxCell>
        <mxCell id="8PfWSfrLphycb07iS4tt-82" value="" style="endArrow=diamondThin;endFill=0;endSize=24;html=1;rounded=0;exitX=-0.008;exitY=0.433;exitDx=0;exitDy=0;exitPerimeter=0;edgeStyle=orthogonalEdgeStyle;entryX=1;entryY=0.5;entryDx=0;entryDy=0;" parent="WIyWlLk6GJQsqaUBKTNV-1" source="8PfWSfrLphycb07iS4tt-77" target="8PfWSfrLphycb07iS4tt-51" edge="1">
          <mxGeometry width="160" relative="1" as="geometry">
            <mxPoint x="3781" y="849" as="sourcePoint" />
            <mxPoint x="3510" y="1330" as="targetPoint" />
          </mxGeometry>
        </mxCell>
        <mxCell id="8PfWSfrLphycb07iS4tt-83" value="" style="endArrow=diamondThin;endFill=0;endSize=24;html=1;rounded=0;exitX=-0.017;exitY=0.544;exitDx=0;exitDy=0;exitPerimeter=0;edgeStyle=orthogonalEdgeStyle;entryX=1;entryY=0.5;entryDx=0;entryDy=0;" parent="WIyWlLk6GJQsqaUBKTNV-1" source="8PfWSfrLphycb07iS4tt-81" target="8PfWSfrLphycb07iS4tt-51" edge="1">
          <mxGeometry width="160" relative="1" as="geometry">
            <mxPoint x="3777" y="1406" as="sourcePoint" />
            <mxPoint x="3520" y="1550" as="targetPoint" />
          </mxGeometry>
        </mxCell>
        <mxCell id="8PfWSfrLphycb07iS4tt-89" value="" style="endArrow=none;html=1;rounded=0;entryX=0;entryY=0.5;entryDx=0;entryDy=0;exitX=1;exitY=0.5;exitDx=0;exitDy=0;" parent="WIyWlLk6GJQsqaUBKTNV-1" source="8PfWSfrLphycb07iS4tt-46" target="8PfWSfrLphycb07iS4tt-62" edge="1">
          <mxGeometry width="50" height="50" relative="1" as="geometry">
            <mxPoint x="3900" y="830" as="sourcePoint" />
            <mxPoint x="3950" y="780" as="targetPoint" />
          </mxGeometry>
        </mxCell>
        <mxCell id="8PfWSfrLphycb07iS4tt-90" value="" style="endArrow=none;html=1;rounded=0;entryX=0;entryY=0.5;entryDx=0;entryDy=0;" parent="WIyWlLk6GJQsqaUBKTNV-1" edge="1">
          <mxGeometry width="50" height="50" relative="1" as="geometry">
            <mxPoint x="4170" y="1424" as="sourcePoint" />
            <mxPoint x="4210" y="1424" as="targetPoint" />
          </mxGeometry>
        </mxCell>
        <mxCell id="8PfWSfrLphycb07iS4tt-99" value="" style="endArrow=none;html=1;rounded=0;entryX=0;entryY=0.5;entryDx=0;entryDy=0;exitX=1;exitY=0.5;exitDx=0;exitDy=0;" parent="WIyWlLk6GJQsqaUBKTNV-1" source="8PfWSfrLphycb07iS4tt-81" edge="1">
          <mxGeometry width="50" height="50" relative="1" as="geometry">
            <mxPoint x="4180" y="1945" as="sourcePoint" />
            <mxPoint x="4210" y="1944.5" as="targetPoint" />
          </mxGeometry>
        </mxCell>
        <mxCell id="8PfWSfrLphycb07iS4tt-100" value="SP_Permit" style="swimlane;fontStyle=0;childLayout=stackLayout;horizontal=1;startSize=26;fillColor=#FFF4C3;horizontalStack=0;resizeParent=1;resizeParentMax=0;resizeLast=0;collapsible=1;marginBottom=0;whiteSpace=wrap;html=1;" parent="WIyWlLk6GJQsqaUBKTNV-1" vertex="1" collapsed="1">
          <mxGeometry x="4210" y="1410" width="100" height="30" as="geometry">
            <mxRectangle x="4160" y="760" width="330" height="230" as="alternateBounds" />
          </mxGeometry>
        </mxCell>
        <mxCell id="8PfWSfrLphycb07iS4tt-101" value="+ pID: MUVoord001" style="text;strokeColor=none;fillColor=none;align=left;verticalAlign=top;spacingLeft=4;spacingRight=4;overflow=hidden;rotatable=0;points=[[0,0.5],[1,0.5]];portConstraint=eastwest;whiteSpace=wrap;html=1;" parent="8PfWSfrLphycb07iS4tt-100" vertex="1">
          <mxGeometry y="26" width="330" height="26" as="geometry" />
        </mxCell>
        <mxCell id="8PfWSfrLphycb07iS4tt-102" value="+ typeOfPermit:&amp;nbsp;SP_PermitType" style="text;strokeColor=none;fillColor=none;align=left;verticalAlign=top;spacingLeft=4;spacingRight=4;overflow=hidden;rotatable=0;points=[[0,0.5],[1,0.5]];portConstraint=eastwest;whiteSpace=wrap;html=1;" parent="8PfWSfrLphycb07iS4tt-100" vertex="1">
          <mxGeometry y="52" width="330" height="26" as="geometry" />
        </mxCell>
        <mxCell id="8PfWSfrLphycb07iS4tt-103" value="+ name: CharacterString&lt;div&gt;&lt;br&gt;&lt;div&gt;+ description:&amp;nbsp;CharacterString&lt;/div&gt;&lt;div&gt;&lt;br&gt;&lt;div&gt;+&amp;nbsp;decisionDate:&amp;nbsp;DateTime&lt;/div&gt;&lt;div&gt;&lt;br&gt;&lt;/div&gt;&lt;div&gt;+&amp;nbsp;duration:&amp;nbsp;CharacterString&lt;/div&gt;&lt;div&gt;&lt;br&gt;&lt;/div&gt;&lt;div&gt;+&amp;nbsp;period:&amp;nbsp;CharacterString&lt;/div&gt;&lt;div&gt;&lt;br&gt;&lt;/div&gt;&lt;div&gt;&lt;br&gt;&lt;/div&gt;&lt;/div&gt;&lt;/div&gt;" style="text;strokeColor=none;fillColor=none;align=left;verticalAlign=top;spacingLeft=4;spacingRight=4;overflow=hidden;rotatable=0;points=[[0,0.5],[1,0.5]];portConstraint=eastwest;whiteSpace=wrap;html=1;" parent="8PfWSfrLphycb07iS4tt-100" vertex="1">
          <mxGeometry y="78" width="330" height="152" as="geometry" />
        </mxCell>
        <mxCell id="8PfWSfrLphycb07iS4tt-104" value="SP_Permit" style="swimlane;fontStyle=0;childLayout=stackLayout;horizontal=1;startSize=26;fillColor=#FFF4C3;horizontalStack=0;resizeParent=1;resizeParentMax=0;resizeLast=0;collapsible=1;marginBottom=0;whiteSpace=wrap;html=1;" parent="WIyWlLk6GJQsqaUBKTNV-1" vertex="1" collapsed="1">
          <mxGeometry x="4210" y="1930" width="100" height="30" as="geometry">
            <mxRectangle x="4160" y="760" width="330" height="230" as="alternateBounds" />
          </mxGeometry>
        </mxCell>
        <mxCell id="8PfWSfrLphycb07iS4tt-105" value="+ pID: MUVoord001" style="text;strokeColor=none;fillColor=none;align=left;verticalAlign=top;spacingLeft=4;spacingRight=4;overflow=hidden;rotatable=0;points=[[0,0.5],[1,0.5]];portConstraint=eastwest;whiteSpace=wrap;html=1;" parent="8PfWSfrLphycb07iS4tt-104" vertex="1">
          <mxGeometry y="26" width="330" height="26" as="geometry" />
        </mxCell>
        <mxCell id="8PfWSfrLphycb07iS4tt-106" value="+ typeOfPermit:&amp;nbsp;SP_PermitType" style="text;strokeColor=none;fillColor=none;align=left;verticalAlign=top;spacingLeft=4;spacingRight=4;overflow=hidden;rotatable=0;points=[[0,0.5],[1,0.5]];portConstraint=eastwest;whiteSpace=wrap;html=1;" parent="8PfWSfrLphycb07iS4tt-104" vertex="1">
          <mxGeometry y="52" width="330" height="26" as="geometry" />
        </mxCell>
        <mxCell id="8PfWSfrLphycb07iS4tt-107" value="+ name: CharacterString&lt;div&gt;&lt;br&gt;&lt;div&gt;+ description:&amp;nbsp;CharacterString&lt;/div&gt;&lt;div&gt;&lt;br&gt;&lt;div&gt;+&amp;nbsp;decisionDate:&amp;nbsp;DateTime&lt;/div&gt;&lt;div&gt;&lt;br&gt;&lt;/div&gt;&lt;div&gt;+&amp;nbsp;duration:&amp;nbsp;CharacterString&lt;/div&gt;&lt;div&gt;&lt;br&gt;&lt;/div&gt;&lt;div&gt;+&amp;nbsp;period:&amp;nbsp;CharacterString&lt;/div&gt;&lt;div&gt;&lt;br&gt;&lt;/div&gt;&lt;div&gt;&lt;br&gt;&lt;/div&gt;&lt;/div&gt;&lt;/div&gt;" style="text;strokeColor=none;fillColor=none;align=left;verticalAlign=top;spacingLeft=4;spacingRight=4;overflow=hidden;rotatable=0;points=[[0,0.5],[1,0.5]];portConstraint=eastwest;whiteSpace=wrap;html=1;" parent="8PfWSfrLphycb07iS4tt-104" vertex="1">
          <mxGeometry y="78" width="330" height="152" as="geometry" />
        </mxCell>
        <mxCell id="qrxlARyD4c33kpSb_wRj-0" value="&lt;font style=&quot;font-size: 18px;&quot;&gt;Masterplan&lt;/font&gt;" style="rounded=0;whiteSpace=wrap;html=1;fillColor=#E6D0DE;" vertex="1" parent="WIyWlLk6GJQsqaUBKTNV-1">
          <mxGeometry x="1400" y="140" width="440" height="430" as="geometry" />
        </mxCell>
        <mxCell id="Do0kJ8rjm1IlfwYtHrLe-1" value="&lt;font style=&quot;font-size: 14px;&quot;&gt;Requirement 6: Spatial plan information shall support the planning hierarchy (from national to local)&amp;nbsp;&lt;span style=&quot;background-color: initial;&quot;&gt;via hierarchical plan groups.&lt;/span&gt;&lt;/font&gt;&lt;span style=&quot;text-wrap: nowrap; background-color: initial; color: rgba(0, 0, 0, 0); font-family: monospace; font-size: 0px; text-align: start;&quot;&gt;3CmxGraphModel%3E%3Croot%3E%3CmxCell%20id%3D%220%22%2F%3E%3CmxCell%20id%3D%221%22%20parent%3D%220%22%2F%3E%3CmxCell%20id%3D%222%22%20value%3D%22%26lt%3Bdiv%26gt%3BRequirement%204%3A%20Spatial%20plan%26amp%3Bnbsp%3B%26lt%3B%2Fdiv%26gt%3B%26lt%3Bdiv%26gt%3Binformation%20compliant%20with%26amp%3Bnbsp%3B%26lt%3B%2Fdiv%26gt%3B%26lt%3Bdiv%26gt%3Bthis%20part%20of%20LADM%20shall%26lt%3B%2Fdiv%26gt%3B%26lt%3Bdiv%26gt%3Borganize%26lt%3Bspan%20style%3D%26quot%3Bbackground-color%3A%20initial%3B%26quot%3B%26gt%3B%26amp%3Bnbsp%3Bplan%20units%26lt%3B%2Fspan%26gt%3B%26lt%3B%2Fdiv%26gt%3B%26lt%3Bdiv%26gt%3B(plan%20zones)%20in%20plan%20block%2C%26lt%3B%2Fdiv%26gt%3B%22%20style%3D%22shape%3Dcallout%3BwhiteSpace%3Dwrap%3Bhtml%3D1%3Bperimeter%3DcalloutPerimeter%3Bposition2%3D0.73%3BfillColor%3D%23E6D0DE%3B%22%20vertex%3D%221%22%20parent%3D%221%22%3E%3CmxGeometry%20x%3D%221510%22%20y%3D%22-1110%22%20width%3D%22260%22%20height%3D%22120%22%20as%3D%22geometry%22%2F%3E%3C%2FmxCell%3E%3C%2Froot%3E%3C%2FmxGraphModel%3E&lt;/span&gt;" style="shape=callout;whiteSpace=wrap;html=1;perimeter=calloutPerimeter;position2=0.62;fillColor=#E6D0DE;" vertex="1" parent="WIyWlLk6GJQsqaUBKTNV-1">
          <mxGeometry x="1296" y="-1950" width="290" height="120" as="geometry" />
        </mxCell>
        <mxCell id="qrxlARyD4c33kpSb_wRj-1" value="&lt;font style=&quot;font-size: 18px;&quot;&gt;Local Adaptation Plan&lt;/font&gt;" style="rounded=0;whiteSpace=wrap;html=1;fillColor=#FFCE9F;" vertex="1" parent="WIyWlLk6GJQsqaUBKTNV-1">
          <mxGeometry x="1400" y="380" width="230" height="190" as="geometry" />
        </mxCell>
        <mxCell id="Do0kJ8rjm1IlfwYtHrLe-2" value="&lt;p style=&quot;margin:0px;margin-top:4px;text-align:center;&quot;&gt;&lt;font style=&quot;font-size: 14px;&quot;&gt;&lt;i style=&quot;background-color: initial;&quot;&gt;&amp;lt;&amp;lt;Code List&amp;gt;&amp;gt;&lt;/i&gt;&lt;br&gt;&lt;/font&gt;&lt;/p&gt;&lt;p style=&quot;margin:0px;margin-top:4px;text-align:center;&quot;&gt;&lt;b&gt;&lt;font style=&quot;font-size: 14px;&quot;&gt;LA_SurfaceRelationType&lt;/font&gt;&lt;/b&gt;&lt;/p&gt;&lt;hr size=&quot;1&quot; style=&quot;border-style:solid;&quot;&gt;&lt;p style=&quot;margin:0px;margin-left:4px;&quot;&gt;&lt;font style=&quot;font-size: 14px;&quot;&gt;+ Bellow&lt;/font&gt;&lt;/p&gt;&lt;p style=&quot;margin:0px;margin-left:4px;&quot;&gt;&lt;font style=&quot;font-size: 14px;&quot;&gt;+ Above&lt;/font&gt;&lt;/p&gt;&lt;p style=&quot;margin:0px;margin-left:4px;&quot;&gt;&lt;font style=&quot;font-size: 14px;&quot;&gt;+ Mixed&lt;/font&gt;&lt;/p&gt;&lt;p style=&quot;margin:0px;margin-left:4px;&quot;&gt;&lt;br&gt;&lt;/p&gt;" style="verticalAlign=top;align=left;overflow=fill;html=1;whiteSpace=wrap;fillColor=#E6E6E6;" vertex="1" parent="WIyWlLk6GJQsqaUBKTNV-1">
          <mxGeometry x="1797" y="739" width="210" height="111" as="geometry" />
        </mxCell>
        <mxCell id="qrxlARyD4c33kpSb_wRj-2" value="&lt;font style=&quot;font-size: 18px;&quot;&gt;Intervention&lt;/font&gt;" style="rounded=0;whiteSpace=wrap;html=1;fillColor=#FFF4C3;" vertex="1" parent="WIyWlLk6GJQsqaUBKTNV-1">
          <mxGeometry x="1400" y="500" width="120" height="70" as="geometry" />
        </mxCell>
      </root>
    </mxGraphModel>
  </diagram>
</mxfile>
